<svg xmlns="http://www.w3.org/2000/svg" viewBox="0 0 61 60" width="61" height="60">
	<defs>
		<clipPath clipPathUnits="userSpaceOnUse" id="cp1">
			<path d="M-1075 -1831L845 -1831L845 3886L-1075 3886Z" />
		</clipPath>
	</defs>
	<style>
		tspan { white-space:pre }
		.shp0 { fill: #00bf6f } 
		.shp1 { fill: #ffffff } 
		.shp2 { fill: #003575 } 
	</style>
	<g id="Desktop-1" clip-path="url(#cp1)">
		<g id="Grupo 13379">
			<g id="Grupo 13209">
				<g id="Grupo 13131">
					<g id="Grupo 13214">
						<path id="Caminho 3237" class="shp0" d="M1.46 29.65L8.44 29.65L8.44 58.64L1.46 58.64L1.46 29.65Z" />
						<path id="Caminho 3111" class="shp0" d="M24.3 43.38L24.3 5.2L27.96 1.54L55.45 1.54L58.75 4.84L58.75 48.67L41.74 48.67L41.74 43.98L24.3 43.38Z" />
						<path id="Caminho 3113" class="shp0" d="M38.02 20.63L38.02 31.29L46.71 26.17L38.02 20.63Z" />
					</g>
					<path id="Caminho 3110" class="shp1" d="M41 49.77L58.75 49.77L58.75 56.2L56.24 58.71L28.13 58.71L24.46 55.04L28.03 51.47L38.02 51.47L41 49.77Z" />
					<path id="Caminho 3112" class="shp1" d="M23.36 32.3L14.67 32.3L9.38 37.16L9.38 53.93L16.8 56.68L23.36 56L28.71 51.48L38.94 51.14L41.49 48.24L40.74 44.36L23.27 44.36L23.36 32.3Z" />
					<path id="Elipse 71" class="shp1" d="M41.74 37.76C35.34 37.76 30.16 32.58 30.16 26.17C30.16 19.76 35.34 14.59 41.74 14.59C48.15 14.59 53.33 19.76 53.33 26.17C53.33 32.58 48.15 37.76 41.74 37.76Z" />
					<path id="Elipse 72" class="shp1" d="M41.49 38.19C34.96 38.19 29.68 32.91 29.68 26.39C29.68 19.86 34.96 14.59 41.49 14.59C48.01 14.59 53.29 19.86 53.29 26.39C53.29 32.91 48.01 38.19 41.49 38.19Z" />
					<g id="Grupo 13130">
						<path id="Caminho 3114" fill-rule="evenodd" class="shp2" d="M60 6.28L60 53.72C60 57.18 57.22 60 53.79 60L29.18 60C27.1 60 25.18 58.96 24.02 57.21C23.9 57.03 23.7 56.92 23.5 56.92C23.4 56.92 23.3 56.95 23.21 56.99C21.76 57.74 20.26 58.09 18.51 58.09C15.03 58.09 12.66 56.88 11.19 55.98C11.09 55.91 10.97 55.88 10.86 55.88C10.75 55.88 10.65 55.91 10.55 55.96C10.35 56.07 10.23 56.28 10.23 56.51L10.23 58.71C10.23 59.42 9.65 60 8.94 60L1.29 60C0.58 60 0 59.42 0 58.71L0 30C0 29.29 0.58 28.71 1.29 28.71L8.94 28.71C9.65 28.71 10.23 29.29 10.23 30L10.23 33.39C10.23 33.64 10.37 33.86 10.6 33.96C10.68 34 10.77 34.02 10.86 34.02C11.01 34.02 11.16 33.96 11.28 33.86L12.95 32.37L12.98 32.35C14.05 31.27 15.64 30.63 17.23 30.63L22.34 30.63C22.69 30.63 22.97 30.35 22.97 30L22.97 6.28C22.97 2.82 25.76 0 29.18 0L53.79 0C57.22 0 60 2.82 60 6.28ZM7.66 31.91C7.66 31.57 7.38 31.29 7.03 31.29L3.2 31.29C2.85 31.29 2.57 31.57 2.57 31.91L2.57 56.8C2.57 57.15 2.85 57.43 3.2 57.43L7.03 57.43C7.38 57.43 7.66 57.15 7.66 56.8L7.66 31.91ZM33.82 49.77L37.71 49.77C39.06 49.77 40.2 48.57 40.2 47.15C40.2 45.77 39.11 44.69 37.71 44.69L20.43 44.69C19.72 44.69 19.14 44.11 19.14 43.4C19.14 42.69 19.72 42.11 20.43 42.11L22.34 42.11C22.69 42.11 22.97 41.83 22.97 41.49L22.97 33.83C22.97 33.48 22.69 33.2 22.34 33.2L17.23 33.2C16.3 33.2 15.39 33.58 14.72 34.23L10.44 38.05C10.31 38.17 10.23 38.34 10.23 38.52L10.23 51.91C10.23 52.12 10.33 52.31 10.51 52.43C10.71 52.56 10.9 52.69 11.12 52.84C12.83 54.03 14.96 55.51 18.51 55.51C21.25 55.51 22.62 54.48 24.36 53.16C26.35 51.65 28.83 49.77 33.82 49.77ZM57.43 51.06C57.43 50.71 57.15 50.43 56.8 50.43L41.9 50.43C41.72 50.43 41.55 50.51 41.43 50.64C40.45 51.74 39.13 52.34 37.71 52.34L33.83 52.34C30.04 52.34 28.18 53.51 26.31 54.92C26.04 55.12 25.98 55.49 26.16 55.76C26.85 56.81 27.98 57.43 29.18 57.43L53.79 57.43C55.8 57.43 57.43 55.76 57.43 53.72L57.43 51.06ZM57.43 6.28C57.43 4.24 55.8 2.57 53.79 2.57L29.18 2.57C27.17 2.57 25.54 4.24 25.54 6.28L25.54 41.49C25.54 41.83 25.82 42.11 26.17 42.11L37.71 42.11C40.49 42.11 42.76 44.36 42.77 47.12C42.77 47.16 42.77 47.19 42.76 47.22C42.76 47.39 42.83 47.55 42.95 47.67C43.06 47.79 43.22 47.86 43.39 47.86L56.8 47.86C57.15 47.86 57.43 47.58 57.43 47.23L57.43 6.28Z" />
						<path id="Caminho 3115" class="shp2" d="M31.91 10.23L51.06 10.23C51.77 10.23 52.34 9.65 52.34 8.94C52.34 8.23 51.77 7.66 51.06 7.66L31.91 7.66C31.21 7.66 30.63 8.23 30.63 8.94C30.63 9.65 31.21 10.23 31.91 10.23Z" />
						<path id="Caminho 3116" fill-rule="evenodd" class="shp2" d="M54.26 26.17C54.26 33.21 48.53 38.94 41.49 38.94C34.44 38.94 28.71 33.21 28.71 26.17C28.71 19.13 34.44 13.4 41.49 13.4C48.53 13.4 54.26 19.13 54.26 26.17ZM51.68 26.17C51.68 20.55 47.11 15.97 41.49 15.97C35.86 15.97 31.29 20.55 31.29 26.17C31.29 31.8 35.86 36.37 41.49 36.37C47.11 36.37 51.68 31.8 51.68 26.17Z" />
						<path id="Caminho 3117" fill-rule="evenodd" class="shp2" d="M48.51 26.17C48.51 26.62 48.28 27.04 47.89 27.27L38.32 33.02C38.12 33.14 37.89 33.2 37.66 33.2C37.43 33.2 37.22 33.14 37.02 33.03C36.62 32.81 36.37 32.38 36.37 31.91L36.37 20.43C36.37 19.97 36.62 19.54 37.02 19.31C37.22 19.2 37.43 19.14 37.65 19.14C37.89 19.14 38.12 19.21 38.32 19.33L47.89 25.07C48.28 25.3 48.51 25.72 48.51 26.17ZM44.14 26.17C44.14 25.95 44.02 25.75 43.83 25.63L39.89 23.27C39.8 23.21 39.68 23.18 39.57 23.18C39.47 23.18 39.36 23.21 39.26 23.26C39.07 23.38 38.94 23.58 38.94 23.81L38.94 28.53C38.94 28.76 39.07 28.97 39.26 29.08C39.36 29.13 39.47 29.16 39.57 29.16C39.68 29.16 39.8 29.13 39.89 29.07L43.83 26.71C44.02 26.6 44.14 26.39 44.14 26.17Z" />
					</g>
				</g>
			</g>
		</g>
	</g>
</svg>