<svg xmlns="http://www.w3.org/2000/svg" viewBox="0 0 61 61" width="61" height="61">
	<defs>
		<clipPath clipPathUnits="userSpaceOnUse" id="cp1">
			<path d="M-374 -2534L1546 -2534L1546 3183L-374 3183Z" />
		</clipPath>
	</defs>
	<style>
		tspan { white-space:pre }
		.shp0 { fill: #ffbecf } 
		.shp1 { fill: #ffffff } 
		.shp2 { fill: #ef426f } 
	</style>
	<g id="Desktop-1" clip-path="url(#cp1)">
		<g id="Grupo 13378">
			<g id="Grupo 13337">
				<g id="Grupo 13195">
					<g id="Grupo 13221">
						<g id="Grupo 13189">
							<g id="Grupo 13188">
								<path id="Elipse 78" class="shp0" d="M31 41.48C19.97 41.48 11.06 32.64 11.06 21.69C11.06 10.75 19.97 1.91 31 1.91C42.03 1.91 50.94 10.75 50.94 21.69C50.94 32.64 42.03 41.48 31 41.48Z" />
							</g>
						</g>
						<g id="Grupo 13193">
							<g id="Grupo 13192">
								<path id="Retângulo 11169" class="shp0" d="M27.71 54.52L33.94 54.52L33.94 58.74L27.71 58.74L27.71 54.52Z" />
							</g>
						</g>
					</g>
					<g id="Grupo 13191">
						<g id="Grupo 13190">
							<path id="Retângulo 11168" class="shp1" d="M22.06 42.92L39.94 42.92L39.94 53.65L22.06 53.65L22.06 42.92Z" />
						</g>
					</g>
					<g id="Grupo 13194">
						<path id="Caminho 3220" class="shp2" d="M31 1C18.68 1 8.66 10.59 8.66 22.39C8.66 27.88 10.83 33.1 14.78 37.09C15.02 37.33 15.34 37.47 15.69 37.47C16.03 37.47 16.35 37.34 16.59 37.1C16.84 36.85 16.97 36.53 16.97 36.19C16.98 35.84 16.84 35.52 16.6 35.28C13.14 31.78 11.23 27.2 11.23 22.39C11.23 12.01 20.1 3.57 31 3.57C41.9 3.57 50.77 12.01 50.77 22.39C50.77 27.47 48.67 32.24 44.86 35.8C44.61 36.04 44.46 36.35 44.45 36.7C44.44 37.04 44.56 37.37 44.8 37.62C45.04 37.88 45.38 38.03 45.74 38.03C46.06 38.03 46.38 37.91 46.61 37.68C50.95 33.62 53.34 28.19 53.34 22.39C53.34 10.59 43.32 1 31 1Z" />
						<path id="Caminho 3221" class="shp2" d="M27.17 26.46C27.58 26.46 28.09 26.29 28.32 25.83L30.44 21.6C30.54 21.39 30.76 21.25 31 21.25C31.24 21.25 31.46 21.39 31.56 21.6L33.68 25.83C33.9 26.27 34.34 26.54 34.83 26.54C35.32 26.54 35.76 26.27 35.98 25.83L39.81 18.17C39.96 17.87 39.99 17.52 39.88 17.19C39.77 16.87 39.54 16.6 39.23 16.45C39.05 16.36 38.86 16.31 38.66 16.31C38.17 16.31 37.73 16.59 37.51 17.02L35.39 21.26C35.28 21.47 35.07 21.6 34.83 21.6C34.59 21.6 34.37 21.47 34.27 21.26L32.15 17.03C31.92 16.56 31.4 16.4 31 16.4C30.6 16.4 30.08 16.56 29.85 17.02L27.73 21.26C27.63 21.47 27.41 21.6 27.17 21.6C26.93 21.6 26.72 21.47 26.61 21.26L24.49 17.03C24.27 16.59 23.83 16.31 23.34 16.31C23.14 16.31 22.95 16.36 22.77 16.45C22.46 16.6 22.23 16.87 22.12 17.19C22.01 17.52 22.04 17.87 22.19 18.17L26.02 25.83C26.25 26.29 26.77 26.46 27.17 26.46Z" />
						<path id="Caminho 3222" fill-rule="evenodd" class="shp2" d="M41 47.85C40.83 48.07 40.83 48.38 41 48.61C41.56 49.34 41.86 50.21 41.86 51.1C41.86 53.39 39.99 55.26 37.7 55.26L36.74 55.26C36.4 55.26 36.11 55.54 36.11 55.88C36.11 58.7 33.82 61 31 61C28.18 61 25.89 58.7 25.89 55.88C25.89 55.54 25.6 55.26 25.26 55.26L24.3 55.26C22.01 55.26 20.14 53.39 20.14 51.1C20.14 50.21 20.44 49.34 21 48.61C21.17 48.38 21.17 48.07 21 47.85C20.44 47.11 20.14 46.25 20.14 45.36C20.14 43.06 22.01 41.2 24.3 41.2L25.26 41.2C25.6 41.2 25.89 40.92 25.89 40.57L25.89 32.91C25.89 32.2 26.46 31.63 27.17 31.63C27.88 31.63 28.46 32.2 28.46 32.91L28.46 40.57C28.46 40.92 28.74 41.2 29.09 41.2L32.91 41.2C33.26 41.2 33.54 40.92 33.54 40.57L33.54 32.91C33.54 32.2 34.12 31.63 34.83 31.63C35.54 31.63 36.11 32.2 36.11 32.91L36.11 40.57C36.11 40.92 36.4 41.2 36.74 41.2L37.7 41.2C39.99 41.2 41.86 43.06 41.86 45.36C41.86 46.25 41.56 47.11 41 47.85ZM33.54 55.88C33.54 55.54 33.26 55.26 32.91 55.26L29.09 55.26C28.74 55.26 28.46 55.54 28.46 55.88C28.46 57.29 29.6 58.43 31 58.43C32.4 58.43 33.54 57.29 33.54 55.88ZM39.29 51.1C39.29 50.24 38.56 49.51 37.7 49.51L24.3 49.51C23.44 49.51 22.71 50.24 22.71 51.1C22.71 51.96 23.44 52.68 24.3 52.68L37.7 52.68C38.56 52.68 39.29 51.96 39.29 51.1ZM39.29 45.36C39.29 44.5 38.56 43.77 37.7 43.77L24.3 43.77C23.44 43.77 22.71 44.5 22.71 45.36C22.71 46.22 23.44 46.94 24.3 46.94L37.7 46.94C38.56 46.94 39.29 46.22 39.29 45.36Z" />
						<path id="Caminho 3223" class="shp2" d="M55.88 7.4C56.23 7.4 56.55 7.27 56.79 7.02L60.62 3.19C60.87 2.95 61 2.63 61 2.29C61 1.94 60.87 1.62 60.62 1.38C60.38 1.13 60.06 1 59.71 1C59.37 1 59.05 1.13 58.8 1.38L54.98 5.21C54.73 5.45 54.6 5.77 54.6 6.11C54.6 6.46 54.73 6.78 54.98 7.02C55.22 7.27 55.54 7.4 55.88 7.4Z" />
						<path id="Caminho 3224" class="shp2" d="M3.2 1.38C2.95 1.13 2.63 1 2.29 1C1.94 1 1.62 1.13 1.38 1.38C1.13 1.62 1 1.94 1 2.29C1 2.63 1.13 2.95 1.38 3.19L5.21 7.02C5.45 7.27 5.77 7.4 6.11 7.4C6.46 7.4 6.78 7.27 7.02 7.02C7.27 6.78 7.4 6.46 7.4 6.11C7.4 5.77 7.27 5.45 7.02 5.21L3.2 1.38Z" />
						<path id="Caminho 3225" class="shp2" d="M6.11 37.37C5.77 37.37 5.45 37.5 5.21 37.75L1.38 41.58C1.13 41.82 1 42.14 1 42.48C1 42.83 1.13 43.15 1.38 43.39C1.62 43.64 1.94 43.77 2.29 43.77C2.63 43.77 2.95 43.64 3.2 43.39L7.02 39.56C7.27 39.32 7.4 39 7.4 38.66C7.4 38.31 7.27 37.99 7.02 37.75C6.78 37.5 6.46 37.37 6.11 37.37Z" />
						<path id="Caminho 3226" class="shp2" d="M56.79 37.75C56.55 37.5 56.23 37.37 55.88 37.37C55.54 37.37 55.22 37.5 54.98 37.75C54.73 37.99 54.6 38.31 54.6 38.66C54.6 39 54.73 39.32 54.98 39.56L58.8 43.39C59.05 43.64 59.37 43.77 59.71 43.77C60.06 43.77 60.38 43.64 60.62 43.39C60.87 43.15 61 42.83 61 42.48C61 42.14 60.87 41.82 60.62 41.58L56.79 37.75Z" />
					</g>
				</g>
			</g>
		</g>
	</g>
</svg>