<svg xmlns="http://www.w3.org/2000/svg" viewBox="0 0 61 61" width="61" height="61">
	<defs>
		<clipPath clipPathUnits="userSpaceOnUse" id="cp1">
			<path d="M-1075 -1959L845 -1959L845 3758L-1075 3758Z" />
		</clipPath>
	</defs>
	<style>
		tspan { white-space:pre }
		.shp0 { fill: #00bf6f } 
		.shp1 { fill: #ffffff } 
		.shp2 { fill: #003575 } 
	</style>
	<g id="Desktop-1" clip-path="url(#cp1)">
		<g id="Grupo 13379">
			<g id="Grupo 13210">
				<g id="Grupo 13141">
					<g id="Grupo 13215">
						<g id="Grupo 13135">
							<g id="Grupo 13134">
								<path id="Caminho 3124" class="shp0" d="M44.47 29.72L38.89 27.17L37.24 24.16L36.96 24.16C35.08 25.82 32.65 26.46 30 26.46C27.39 26.46 24.99 25.84 23.12 24.23C23.09 24.2 23.04 24.4 23.02 24.38L20.95 26.99L12.98 30.57L12.98 41.82L47.33 41.82L47.33 33.94L44.47 29.72Z" />
							</g>
						</g>
						<g id="Grupo 13139">
							<g id="Grupo 13138">
								<path id="Retângulo 11154" class="shp0" d="M9.05 49.04L50.98 49.04L50.98 59.5L9.05 59.5L9.05 49.04Z" />
							</g>
						</g>
					</g>
					<path id="Caminho 3123" class="shp1" d="M35.36 10.9C35.36 15.72 32.96 19.63 30 19.63C27.04 19.63 24.65 15.72 24.65 10.9C24.65 6.08 27.04 2.17 30 2.17C32.96 2.17 35.36 6.08 35.36 10.9Z" />
					<g id="Grupo 13137">
						<g id="Grupo 13136">
							<path id="Retângulo 11153" class="shp1" d="M1.77 43.1L58.53 43.1L58.53 47.53L1.77 47.53L1.77 43.1Z" />
						</g>
					</g>
					<g id="Grupo 13140">
						<path id="Caminho 3125" fill-rule="evenodd" class="shp2" d="M22.97 9.67C22.97 1.85 27.89 1 30 1C32.11 1 37.03 1.85 37.03 9.67C37.03 15.91 33.94 20.8 30 20.8C26.06 20.8 22.97 15.91 22.97 9.67ZM25.54 9.67C25.54 14.23 27.63 18.23 30 18.23C32.37 18.23 34.46 14.23 34.46 9.67C34.46 3.57 31.1 3.57 30 3.57C28.9 3.57 25.54 3.57 25.54 9.67Z" />
						<path id="Caminho 3126" fill-rule="evenodd" class="shp2" d="M60 36.74L60 48.23C60 48.94 59.42 49.51 58.71 49.51L52.97 49.51C52.62 49.51 52.34 49.79 52.34 50.14L52.34 59.71C52.34 60.42 51.77 61 51.06 61L8.94 61C8.23 61 7.66 60.42 7.66 59.71L7.66 50.14C7.66 49.79 7.38 49.51 7.03 49.51L1.29 49.51C0.58 49.51 0 48.94 0 48.23L0 36.74C0 36.4 0.13 36.08 0.38 35.83L4.21 32C4.45 31.76 4.77 31.63 5.11 31.63C5.46 31.63 5.78 31.76 6.02 32C6.53 32.51 6.53 33.32 6.02 33.82L2.76 37.09C2.64 37.21 2.57 37.37 2.57 37.54L2.57 40.57C2.57 40.92 2.85 41.2 3.2 41.2L10.67 41.2C11.02 41.2 11.3 40.92 11.3 40.57L11.3 34.83C11.3 34.78 11.3 34.74 11.31 34.69C11.48 33.13 11.88 31.1 12.51 30.12C13.68 28.29 15.4 27.98 16.92 27.7C17.62 27.57 18.18 27.33 18.98 26.83C20.14 26.11 20.86 25.42 21.17 24.73C21.38 24.27 21.84 23.97 22.35 23.97C22.53 23.97 22.7 24.01 22.87 24.08C23.18 24.22 23.42 24.48 23.54 24.8C23.67 25.12 23.66 25.47 23.52 25.78C22.99 26.95 21.95 28.01 20.35 29.01C19.61 29.48 18.69 29.98 17.54 30.2C15.91 30.5 15.23 30.65 14.68 31.51C14.33 32.05 14 33.8 13.88 34.86C13.87 34.89 13.87 34.91 13.87 34.94L13.87 40.57C13.87 40.92 14.15 41.2 14.5 41.2L18.51 41.2C18.86 41.2 19.14 40.92 19.14 40.57L19.14 36.74C19.14 36.03 19.72 35.46 20.43 35.46C21.14 35.46 21.71 36.03 21.71 36.74L21.71 40.57C21.71 40.92 22 41.2 22.34 41.2L28.09 41.2C28.43 41.2 28.71 40.92 28.71 40.57L28.71 32.32C28.71 31.61 29.29 31.03 30 31.03C30.71 31.03 31.29 31.61 31.29 32.32L31.29 40.57C31.29 40.92 31.57 41.2 31.91 41.2L37.66 41.2C38 41.2 38.29 40.92 38.29 40.57L38.29 36.74C38.29 36.03 38.86 35.46 39.57 35.46C40.28 35.46 40.86 36.03 40.86 36.74L40.86 40.57C40.86 40.92 41.14 41.2 41.48 41.2L45.31 41.2C45.66 41.2 45.94 40.92 45.94 40.57L45.94 34.94C45.94 34.91 45.94 34.89 45.94 34.86C45.82 33.8 45.48 32.05 45.13 31.5C44.59 30.65 43.91 30.5 42.43 30.23C41.15 29.99 40.25 29.51 39.47 29.02C37.86 28.01 36.83 26.95 36.3 25.78C36.16 25.47 36.15 25.12 36.27 24.8C36.39 24.48 36.63 24.22 36.94 24.08C37.11 24 37.29 23.97 37.47 23.97C37.98 23.97 38.44 24.26 38.64 24.73C38.96 25.42 39.67 26.11 40.83 26.83C41.49 27.24 42.06 27.54 42.74 27.67C44.41 27.98 46.13 28.29 47.3 30.12C47.93 31.1 48.34 33.13 48.51 34.69C48.51 34.74 48.51 34.78 48.51 34.83L48.51 40.57C48.51 40.92 48.8 41.2 49.14 41.2L56.8 41.2C57.15 41.2 57.43 40.92 57.43 40.57L57.43 37.54C57.43 37.37 57.36 37.21 57.24 37.09L53.98 33.82C53.47 33.32 53.47 32.51 53.98 32C54.22 31.76 54.54 31.63 54.89 31.63C55.23 31.63 55.55 31.76 55.79 32L59.62 35.83C59.87 36.08 60 36.4 60 36.74ZM49.77 50.14C49.77 49.79 49.49 49.51 49.14 49.51L10.86 49.51C10.51 49.51 10.23 49.79 10.23 50.14L10.23 57.8C10.23 58.15 10.51 58.43 10.86 58.43L49.14 58.43C49.49 58.43 49.77 58.15 49.77 57.8L49.77 50.14ZM57.43 44.4C57.43 44.05 57.15 43.77 56.8 43.77L3.2 43.77C2.85 43.77 2.57 44.05 2.57 44.4L2.57 46.31C2.57 46.66 2.85 46.94 3.2 46.94L56.8 46.94C57.15 46.94 57.43 46.66 57.43 46.31L57.43 44.4Z" />
						<path id="Caminho 3127" class="shp2" d="M28.71 27.17C28.71 27.88 29.29 28.46 30 28.46C30.71 28.46 31.29 27.88 31.29 27.17C31.29 26.46 30.71 25.89 30 25.89C29.29 25.89 28.71 26.46 28.71 27.17Z" />
					</g>
				</g>
			</g>
		</g>
	</g>
</svg>