<svg xmlns="http://www.w3.org/2000/svg" viewBox="0 0 61 60" width="61" height="60">
	<defs>
		<clipPath clipPathUnits="userSpaceOnUse" id="cp1">
			<path d="M-374 -2683L1546 -2683L1546 3034L-374 3034Z" />
		</clipPath>
	</defs>
	<style>
		tspan { white-space:pre }
		.shp0 { fill: #ffbecf } 
		.shp1 { fill: #ffffff } 
		.shp2 { fill: #ef426f } 
	</style>
	<g id="Desktop-1" clip-path="url(#cp1)">
		<g id="Grupo 13378">
			<g id="Grupo 13336">
				<g id="Grupo 13187">
					<path id="Retângulo 11167" class="shp0" d="M5.06 2.57L56.94 2.57C57.76 2.57 58.43 3.24 58.43 4.06L58.43 44.46C58.43 45.28 57.76 45.94 56.94 45.94L5.06 45.94C4.24 45.94 3.57 45.28 3.57 44.46L3.57 4.06C3.57 3.24 4.24 2.57 5.06 2.57Z" />
					<path id="Caminho 3210" class="shp1" d="M38.65 33.98L55.23 37.94L51.91 41.69L59.53 49.61L54.21 54.94L45.68 47.95L42.36 51.28L38.65 33.98Z" />
					<g id="Grupo 13186">
						<path id="Caminho 3211" fill-rule="evenodd" class="shp2" d="M60.62 48.23C61.12 48.73 61.12 49.55 60.62 50.05L54.88 55.79C54.64 56.04 54.31 56.17 53.97 56.17C53.63 56.17 53.3 56.04 53.06 55.79L46.76 49.49C46.64 49.37 46.48 49.31 46.31 49.31C46.15 49.31 45.99 49.37 45.87 49.49L43.4 51.97C43.15 52.21 42.82 52.34 42.48 52.34C42.36 52.34 42.24 52.33 42.13 52.29C41.67 52.16 41.33 51.79 41.23 51.34L37.4 34.11C37.31 33.68 37.43 33.23 37.75 32.92C37.99 32.68 38.31 32.54 38.66 32.54C38.75 32.54 38.85 32.55 38.94 32.57L56.16 36.4C56.62 36.5 56.99 36.85 57.12 37.3C57.25 37.75 57.13 38.23 56.79 38.57L54.32 41.04C54.07 41.29 54.07 41.68 54.32 41.93L60.62 48.23ZM57.45 48.7L51.15 42.4C50.65 41.89 50.65 41.08 51.15 40.58L52.51 39.21C52.67 39.05 52.73 38.81 52.67 38.59C52.61 38.37 52.43 38.21 52.2 38.16L41.31 35.74C41.27 35.73 41.22 35.72 41.18 35.72C41.01 35.72 40.85 35.79 40.73 35.91C40.58 36.06 40.52 36.28 40.57 36.49L42.98 47.37C43.03 47.6 43.2 47.78 43.42 47.84C43.48 47.86 43.54 47.87 43.6 47.87C43.76 47.87 43.92 47.8 44.04 47.68L45.41 46.32C45.65 46.08 45.97 45.94 46.31 45.94C46.66 45.94 46.98 46.08 47.22 46.32L53.53 52.62C53.65 52.75 53.81 52.81 53.97 52.81C54.13 52.81 54.29 52.75 54.41 52.62L57.45 49.59C57.7 49.34 57.7 48.94 57.45 48.7Z" />
						<path id="Caminho 3212" class="shp2" d="M56.4 0L5.6 0C3.06 0 1 2.06 1 4.6L1 43.92C1 46.45 3.06 48.51 5.6 48.51L21.43 48.51C21.78 48.51 22.06 48.8 22.06 49.14C22.06 54.6 20.17 56.66 19.36 57.29C19.25 57.38 19.12 57.43 18.98 57.43L13.77 57.43C13.06 57.43 12.49 58.01 12.49 58.71C12.49 59.42 13.06 60 13.77 60L48.23 60C48.94 60 49.51 59.42 49.51 58.71C49.51 58.01 48.94 57.43 48.23 57.43L23.72 57.43C23.51 57.43 23.3 57.31 23.19 57.13C23.08 56.95 23.06 56.71 23.16 56.52C24.14 54.58 24.63 52.09 24.63 49.14C24.63 48.8 24.91 48.51 25.26 48.51L34.83 48.51C35.54 48.51 36.11 47.94 36.11 47.23C36.11 46.52 35.54 45.94 34.83 45.94L5.6 45.94C4.48 45.94 3.57 45.03 3.57 43.92L3.57 4.6C3.57 3.48 4.48 2.57 5.6 2.57L56.4 2.57C57.52 2.57 58.43 3.48 58.43 4.6L58.43 33.83C58.43 34.54 59 35.11 59.71 35.11C60.42 35.11 61 34.54 61 33.83L61 4.6C61 2.06 58.94 0 56.4 0Z" />
						<path id="Caminho 3213" class="shp2" d="M14.73 17.47C14.77 17.49 14.81 17.51 14.86 17.55C14.9 17.59 14.93 17.62 14.95 17.65L14.99 17.67C15.03 17.68 15.07 17.7 15.11 17.72C15.15 17.74 15.18 17.76 15.21 17.78L15.24 17.8C15.4 17.85 15.54 17.88 15.67 17.89L15.7 17.89C15.86 17.88 16.03 17.84 16.19 17.77C16.2 17.76 16.22 17.75 16.23 17.74C16.27 17.71 16.31 17.68 16.35 17.66C16.4 17.63 16.44 17.6 16.49 17.58C16.51 17.56 16.54 17.54 16.57 17.53C16.59 17.49 16.62 17.45 16.65 17.42C16.69 17.37 16.73 17.33 16.76 17.31L22.46 9.71C22.66 9.44 22.75 9.1 22.7 8.76C22.65 8.42 22.48 8.12 22.2 7.91C21.98 7.75 21.71 7.66 21.43 7.66C21.02 7.66 20.64 7.84 20.4 8.17L15.98 14.06C15.87 14.21 15.71 14.3 15.52 14.31L15.48 14.32C15.31 14.32 15.15 14.25 15.04 14.13L12.77 11.86C12.52 11.62 12.2 11.49 11.86 11.49C11.51 11.49 11.19 11.62 10.95 11.86C10.45 12.36 10.45 13.18 10.95 13.68L14.73 17.47Z" />
						<path id="Caminho 3214" class="shp2" d="M10.95 25.17L14.73 28.95C14.77 28.97 14.81 29 14.86 29.04C14.9 29.07 14.93 29.1 14.95 29.13L14.99 29.15C15.03 29.17 15.07 29.19 15.11 29.21C15.15 29.23 15.18 29.24 15.21 29.26L15.24 29.28C15.4 29.34 15.54 29.37 15.67 29.37L15.7 29.37C15.86 29.37 16.03 29.33 16.19 29.26C16.2 29.25 16.22 29.24 16.23 29.23C16.27 29.2 16.31 29.17 16.35 29.14C16.4 29.11 16.44 29.09 16.49 29.06C16.51 29.05 16.54 29.03 16.57 29.02C16.59 28.98 16.62 28.94 16.65 28.9C16.69 28.85 16.73 28.82 16.76 28.79L22.46 21.2C22.66 20.92 22.75 20.59 22.7 20.25C22.65 19.91 22.48 19.61 22.2 19.4C21.98 19.23 21.71 19.14 21.43 19.14C21.02 19.14 20.64 19.33 20.4 19.66L15.98 25.55C15.87 25.69 15.71 25.79 15.52 25.8L15.48 25.8C15.31 25.8 15.15 25.73 15.04 25.62L12.77 23.35C12.52 23.11 12.2 22.97 11.86 22.97C11.51 22.97 11.19 23.11 10.95 23.35C10.45 23.85 10.45 24.67 10.95 25.17Z" />
						<path id="Caminho 3215" class="shp2" d="M34.2 26.17C34.2 25.46 33.62 24.88 32.91 24.88L27.17 24.88C26.46 24.88 25.89 25.46 25.89 26.17C25.89 26.88 26.46 27.46 27.17 27.46L32.91 27.46C33.62 27.46 34.2 26.88 34.2 26.17Z" />
						<path id="Caminho 3216" class="shp2" d="M37.37 26.17C37.37 26.88 37.95 27.46 38.66 27.46L50.14 27.46C50.85 27.46 51.43 26.88 51.43 26.17C51.43 25.46 50.85 24.88 50.14 24.88L38.66 24.88C37.95 24.88 37.37 25.46 37.37 26.17Z" />
						<path id="Caminho 3217" class="shp2" d="M39.94 14.69C39.94 13.98 39.37 13.4 38.66 13.4L27.17 13.4C26.46 13.4 25.89 13.98 25.89 14.69C25.89 15.4 26.46 15.97 27.17 15.97L38.66 15.97C39.37 15.97 39.94 15.4 39.94 14.69Z" />
						<path id="Caminho 3218" class="shp2" d="M50.14 15.97C50.85 15.97 51.43 15.4 51.43 14.69C51.43 13.98 50.85 13.4 50.14 13.4L44.4 13.4C43.69 13.4 43.11 13.98 43.11 14.69C43.11 15.4 43.69 15.97 44.4 15.97L50.14 15.97Z" />
						<path id="Caminho 3219" class="shp2" d="M11.86 37.03L31 37.03C31.71 37.03 32.29 36.45 32.29 35.74C32.29 35.03 31.71 34.46 31 34.46L11.86 34.46C11.15 34.46 10.57 35.03 10.57 35.74C10.57 36.45 11.15 37.03 11.86 37.03Z" />
					</g>
				</g>
			</g>
		</g>
	</g>
</svg>