<svg xmlns="http://www.w3.org/2000/svg" viewBox="0 0 48 61" width="48" height="61">
	<defs>
		<clipPath clipPathUnits="userSpaceOnUse" id="cp1">
			<path d="M-374 -2387L1546 -2387L1546 3330L-374 3330Z" />
		</clipPath>
	</defs>
	<style>
		tspan { white-space:pre }
		.shp0 { fill: #ffbecf } 
		.shp1 { fill: #ffffff } 
		.shp2 { fill: #ef426f } 
	</style>
	<g id="Desktop-1" clip-path="url(#cp1)">
		<g id="Grupo 13378">
			<g id="Grupo 13338">
				<g id="Grupo 13372">
					<g id="Grupo 13373">
						<g id="Grupo 13354">
							<g id="Grupo 13353">
								<path id="Retângulo 11249" class="shp0" d="M2.15 51.23L44.14 51.23L44.14 58.67L2.15 58.67L2.15 51.23Z" />
							</g>
						</g>
						<g id="Grupo 13358">
							<g id="Grupo 13357">
								<path id="Caminho 3254" class="shp0" d="M32.58 20.62L23.43 29.78L17.91 24.26L27.29 14.89L32.58 20.62Z" />
							</g>
						</g>
						<g id="Grupo 13360">
							<g id="Grupo 13359">
								<path id="Caminho 3255" class="shp0" d="M45.76 7.45L36.6 16.6L31.09 11.09L40.46 1.71L45.76 7.45Z" />
							</g>
						</g>
					</g>
					<g id="Grupo 13356">
						<g id="Grupo 13355">
							<path id="Retângulo 11250" class="shp1" d="M25.96 42.31L36.3 42.31L36.3 51.74L25.96 51.74L25.96 42.31Z" />
						</g>
					</g>
					<g id="Grupo 13362">
						<g id="Grupo 13361">
							<path id="Caminho 3256" class="shp1" d="M17.38 25.52L12.29 30.61L16.97 35.3L22.25 30.03L17.38 25.52Z" />
						</g>
					</g>
					<g id="Grupo 13364">
						<g id="Grupo 13363">
							<path id="Elipse 81" class="shp1" d="M33.87 19.16C30.87 19.16 28.44 16.73 28.44 13.73C28.44 10.73 30.87 8.3 33.87 8.3C36.87 8.3 39.3 10.73 39.3 13.73C39.3 16.73 36.87 19.16 33.87 19.16Z" />
						</g>
					</g>
					<g id="Grupo 13371">
						<g id="Grupo 13367">
							<g id="Grupo 13366">
								<g id="Grupo 13365">
									<path id="Caminho 3257" fill-rule="evenodd" class="shp2" d="M40.76 15.13C40.72 15.33 40.78 15.54 40.92 15.69L40.96 15.73C44.01 19.14 45.68 23.52 45.68 28.09C45.68 34.23 42.65 39.96 37.56 43.41C37.3 43.59 37.21 43.92 37.34 44.2C37.8 45.15 38.03 46.17 38.03 47.23L38.03 49.14C38.03 49.49 38.31 49.77 38.66 49.77L44.4 49.77C45.11 49.77 45.68 50.35 45.68 51.06L45.68 58.71C45.68 59.42 45.11 60 44.4 60L2.29 60C1.58 60 1 59.42 1 58.71L1 51.06C1 50.35 1.58 49.77 2.29 49.77L23.34 49.77C23.69 49.77 23.97 49.49 23.97 49.14L23.97 47.23C23.97 46 24.3 44.78 24.92 43.72C25.03 43.52 25.03 43.28 24.92 43.09C24.8 42.89 24.6 42.77 24.37 42.77L6.11 42.77C5.4 42.77 4.83 42.19 4.83 41.49C4.83 40.78 5.4 40.2 6.11 40.2L31 40.2C32.47 40.2 33.88 40.65 35.08 41.51C35.19 41.59 35.32 41.63 35.45 41.63C35.6 41.63 35.75 41.58 35.87 41.47C35.93 41.41 35.98 41.38 36.02 41.35C40.46 38.38 43.11 33.42 43.11 28.09C43.11 24.63 42.02 21.34 39.97 18.58C39.86 18.43 39.68 18.33 39.5 18.32L39.46 18.32C39.29 18.32 39.12 18.4 39 18.52C37.85 19.75 36.3 20.53 34.64 20.71C34.5 20.73 34.37 20.79 34.27 20.89L25.61 29.56C25.49 29.67 25.42 29.83 25.42 30C25.42 30.17 25.49 30.33 25.61 30.44L26.17 31C26.67 31.51 26.67 32.32 26.17 32.82C25.92 33.07 25.6 33.2 25.26 33.2C24.91 33.2 24.59 33.07 24.35 32.82L23.79 32.26C23.67 32.14 23.51 32.08 23.34 32.08C23.18 32.08 23.02 32.14 22.9 32.26L18.51 36.65C18.27 36.9 17.94 37.03 17.6 37.03C17.26 37.03 16.93 36.9 16.69 36.65L10.95 30.91C10.7 30.67 10.57 30.34 10.57 30C10.57 29.66 10.7 29.33 10.95 29.09L15.34 24.7C15.58 24.46 15.58 24.06 15.34 23.81L14.78 23.25C14.53 23.01 14.4 22.69 14.4 22.34C14.4 22 14.53 21.68 14.78 21.43C15.02 21.19 15.34 21.06 15.68 21.06C16.03 21.06 16.35 21.19 16.59 21.43L17.15 21.99C17.28 22.12 17.44 22.18 17.6 22.18C17.76 22.18 17.92 22.12 18.04 21.99L26.7 13.33C26.81 13.23 26.87 13.1 26.89 12.96C27.24 9.71 29.85 7.1 33.1 6.74C33.24 6.73 33.37 6.66 33.47 6.56L39.66 0.38C39.9 0.13 40.23 0 40.57 0C40.91 0 41.24 0.13 41.48 0.38L47.22 6.12C47.72 6.62 47.72 7.44 47.22 7.94L41.04 14.12C40.94 14.23 40.87 14.36 40.86 14.5C40.83 14.72 40.8 14.93 40.76 15.13ZM26.54 49.14C26.54 49.49 26.82 49.77 27.17 49.77L34.83 49.77C35.18 49.77 35.46 49.49 35.46 49.14L35.46 47.23C35.46 44.77 33.46 42.77 31 42.77C28.54 42.77 26.54 44.77 26.54 47.23L26.54 49.14ZM4.2 52.34C3.85 52.34 3.57 52.62 3.57 52.97L3.57 56.8C3.57 57.15 3.85 57.43 4.2 57.43L42.48 57.43C42.83 57.43 43.11 57.15 43.11 56.8L43.11 52.97C43.11 52.62 42.83 52.34 42.48 52.34L4.2 52.34ZM21.08 29.56L18.04 26.52C17.92 26.4 17.76 26.34 17.6 26.34C17.44 26.34 17.28 26.4 17.15 26.52L14.12 29.56C14 29.67 13.94 29.83 13.94 30C13.94 30.17 14 30.33 14.12 30.44L17.15 33.48C17.28 33.6 17.44 33.66 17.6 33.66C17.76 33.66 17.92 33.6 18.04 33.48L21.08 30.44C21.32 30.2 21.32 29.8 21.08 29.56ZM30.81 20.36C30.79 20.16 30.67 19.99 30.5 19.89L30.44 19.86C30.33 19.8 30.23 19.74 30.12 19.67L30.02 19.6C29.9 19.52 29.78 19.44 29.66 19.36L29.63 19.33C29.52 19.25 29.42 19.16 29.31 19.07L29.23 19C29.01 18.8 28.8 18.59 28.6 18.37L28.53 18.29C28.44 18.18 28.35 18.08 28.27 17.97L28.25 17.94C28.16 17.82 28.08 17.7 28 17.58L27.93 17.47C27.86 17.37 27.8 17.27 27.74 17.17L27.71 17.11C27.61 16.95 27.43 16.82 27.24 16.8C27.21 16.8 27.18 16.8 27.15 16.8C26.99 16.8 26.83 16.85 26.71 16.96L19.86 23.81C19.74 23.93 19.68 24.09 19.68 24.26C19.68 24.42 19.74 24.58 19.86 24.7L22.9 27.74C23.02 27.86 23.18 27.92 23.34 27.92C23.5 27.92 23.66 27.86 23.79 27.74L30.64 20.89C30.77 20.75 30.84 20.55 30.81 20.36ZM38.33 13.73C38.33 11.27 36.33 9.27 33.87 9.27C31.41 9.27 29.41 11.27 29.41 13.73C29.41 16.19 31.41 18.19 33.87 18.19C36.33 18.19 38.33 16.19 38.33 13.73ZM41.03 10.49L44.05 7.47C44.17 7.36 44.24 7.2 44.24 7.03C44.24 6.86 44.17 6.7 44.05 6.58L41.01 3.55C40.89 3.43 40.73 3.37 40.57 3.37C40.41 3.37 40.25 3.43 40.13 3.55L37.1 6.57C36.97 6.71 36.9 6.91 36.93 7.1C36.95 7.3 37.07 7.47 37.25 7.56L37.31 7.6C37.41 7.66 37.51 7.72 37.61 7.78L37.73 7.86C37.84 7.93 37.96 8.02 38.08 8.1L38.12 8.13C38.22 8.21 38.33 8.3 38.43 8.38L38.51 8.46C38.73 8.65 38.94 8.86 39.14 9.08L39.21 9.17C39.3 9.28 39.39 9.38 39.47 9.49L39.49 9.51C39.58 9.64 39.67 9.76 39.74 9.88L39.81 9.98C39.88 10.09 39.94 10.19 40 10.29L40.03 10.35C40.13 10.52 40.3 10.64 40.49 10.67C40.52 10.67 40.56 10.68 40.59 10.68C40.75 10.68 40.91 10.61 41.03 10.49Z" />
								</g>
							</g>
						</g>
						<g id="Grupo 13370">
							<g id="Grupo 13369">
								<g id="Grupo 13368">
									<path id="Caminho 3258" class="shp2" d="M33.87 12.44C33.16 12.44 32.58 13.02 32.58 13.73C32.58 14.44 33.16 15.01 33.87 15.01C34.58 15.01 35.16 14.44 35.16 13.73C35.16 13.02 34.58 12.44 33.87 12.44Z" />
								</g>
							</g>
						</g>
					</g>
				</g>
			</g>
		</g>
	</g>
</svg>