<svg xmlns="http://www.w3.org/2000/svg" viewBox="0 0 46 61" width="46" height="61">
	<defs>
		<clipPath clipPathUnits="userSpaceOnUse" id="cp1">
			<path d="M-1074 -2957L846 -2957L846 2760L-1074 2760Z" />
		</clipPath>
	</defs>
	<style>
		tspan { white-space:pre }
		.shp0 { fill: #73d7ff } 
		.shp1 { fill: #ffffff } 
		.shp2 { fill: #363d87 } 
	</style>
	<g id="Desktop-1" clip-path="url(#cp1)">
		<g id="Grupo 13377">
			<g id="Grupo 13334">
				<g id="Grupo 13321">
					<g id="Grupo 13308">
						<g id="Grupo 13307">
							<path id="Caminho 3249" class="shp0" d="M19.7 4.53C18.59 3.91 17.91 3.57 17.45 3.57C17.44 3.57 17.41 3.57 17.39 3.57C17.31 3.57 17.22 3.6 17.15 3.63C16.75 3.83 16.41 4.37 15.68 5.98C15.13 7.18 14.56 8.43 13.58 9.18C12.57 9.95 11.18 10.14 9.96 10.31C8.2 10.56 7.62 10.74 7.36 11.12C7.09 11.51 7.1 12.18 7.42 14.01C7.64 15.27 7.89 16.69 7.51 17.92C7.14 19.1 6.2 20.04 5.28 20.95C4.12 22.1 3.57 22.75 3.57 23.34C3.57 23.93 4.12 24.58 5.28 25.74C6.2 26.64 7.14 27.58 7.51 28.76C7.89 29.99 7.64 31.41 7.42 32.67C7.1 34.49 7.09 35.17 7.36 35.56C7.63 35.94 8.23 36.13 9.96 36.37C11.18 36.54 12.57 36.74 13.58 37.51C14.56 38.26 15.13 39.5 15.68 40.7C16.34 42.13 16.73 42.85 17.19 43.06C17.24 43.08 17.29 43.1 17.34 43.11C17.4 43.12 17.45 43.13 17.51 43.13C17.97 43.13 18.54 42.81 19.36 42.34C19.48 42.27 19.59 42.21 19.69 42.15C20.8 41.53 22.04 40.82 23.34 40.82C24.63 40.82 25.89 41.53 26.99 42.15C27.48 42.43 28.67 43.07 29.21 43.11C29.23 43.11 29.25 43.11 29.26 43.11C29.36 43.11 29.45 43.09 29.54 43.05C29.93 42.86 30.27 42.31 31.01 40.7C31.55 39.5 32.12 38.26 33.11 37.51C34.12 36.74 35.5 36.54 36.73 36.37C38.45 36.13 39.06 35.94 39.32 35.56C39.6 35.17 39.58 34.49 39.26 32.67C39.05 31.41 38.8 29.99 39.18 28.76C39.55 27.58 40.49 26.64 41.4 25.74C42.56 24.58 43.11 23.93 43.11 23.34C43.11 22.75 42.56 22.1 41.4 20.95C40.49 20.04 39.55 19.1 39.18 17.92C38.8 16.7 39.05 15.27 39.26 14.01C39.58 12.19 39.6 11.51 39.33 11.12C39.06 10.74 38.48 10.56 36.75 10.31C35.5 10.14 34.12 9.95 33.11 9.18C32.12 8.43 31.56 7.19 31.01 5.99C30.35 4.55 29.96 3.84 29.5 3.62L29.46 3.61C29.36 3.57 29.26 3.55 29.14 3.55C28.7 3.55 28.14 3.86 27.34 4.32C27.22 4.4 27.1 4.47 26.99 4.53C25.89 5.15 24.64 5.86 23.34 5.86C22.05 5.86 20.8 5.15 19.7 4.53Z" />
						</g>
					</g>
					<g id="Grupo 13310">
						<g id="Grupo 13309">
							<path id="Elipse 80" class="shp1" d="M30.99 30.99C26.76 35.22 19.92 35.22 15.69 30.99C11.46 26.76 11.46 19.92 15.69 15.69C19.92 11.46 26.76 11.46 30.99 15.69C35.22 19.92 35.22 26.76 30.99 30.99Z" />
						</g>
					</g>
					<g id="Grupo 13312">
						<g id="Grupo 13311">
							<path id="Caminho 3250" class="shp1" d="M30.02 54.93L23.98 42.58L29.43 43.98L35.96 39.02L41.08 53.32L34.81 53.89L32.04 57.43L30.27 56.28L30.02 54.93Z" />
						</g>
					</g>
					<g id="Grupo 13314">
						<g id="Grupo 13313">
							<path id="Caminho 3251" class="shp1" d="M22.56 45.06L15.91 58.13L11.03 53.02L4.15 53.81L12.52 39.02L16.48 44.55L21.44 43.12L22.56 45.06Z" />
						</g>
					</g>
					<g id="Grupo 13320">
						<g id="Grupo 13317">
							<g id="Grupo 13316">
								<g id="Grupo 13315">
									<path id="Caminho 3252" fill-rule="evenodd" class="shp2" d="M23.34 36.11C16.3 36.11 10.57 30.38 10.57 23.34C10.57 16.3 16.3 10.57 23.34 10.57C30.39 10.57 36.11 16.3 36.11 23.34C36.11 30.38 30.39 36.11 23.34 36.11ZM23.34 13.14C17.72 13.14 13.14 17.72 13.14 23.34C13.14 28.97 17.72 33.54 23.34 33.54C28.97 33.54 33.54 28.97 33.54 23.34C33.54 17.72 28.97 13.14 23.34 13.14Z" />
								</g>
							</g>
						</g>
						<g id="Grupo 13319">
							<g id="Grupo 13318">
								<path id="Caminho 3253" fill-rule="evenodd" class="shp2" d="M43.72 53.78C43.93 54.22 43.88 54.74 43.59 55.13C43.34 55.45 42.97 55.64 42.58 55.64C42.5 55.64 42.42 55.63 42.34 55.62L35.93 54.45C35.89 54.44 35.85 54.44 35.82 54.44C35.59 54.44 35.38 54.56 35.27 54.75L32.06 60.35C31.83 60.75 31.41 61 30.95 61L30.89 61C30.43 60.98 30.01 60.71 29.8 60.28L26.02 52.62C25.87 52.32 25.84 51.97 25.95 51.64C26.06 51.32 26.29 51.06 26.6 50.9C26.78 50.81 26.98 50.77 27.17 50.77C27.67 50.77 28.11 51.04 28.32 51.49L30.51 55.92C30.61 56.13 30.82 56.26 31.06 56.27L31.07 56.27C31.3 56.27 31.51 56.15 31.62 55.95L33.71 52.3C33.94 51.9 34.37 51.65 34.81 51.65C34.89 51.65 34.97 51.66 35.05 51.67L39.05 52.4C39.09 52.41 39.12 52.41 39.16 52.41C39.36 52.41 39.54 52.32 39.66 52.16C39.81 51.97 39.83 51.72 39.73 51.51L34.69 41.29C34.59 41.08 34.37 40.94 34.13 40.94L34.12 40.94C33.88 40.94 33.66 41.09 33.56 41.3C33.49 41.46 33.41 41.62 33.35 41.77C32.62 43.35 31.88 44.97 30.27 45.52C29.94 45.63 29.61 45.69 29.25 45.69C28.03 45.69 26.82 45.01 25.76 44.41L25.48 44.26C25.39 44.2 25.28 44.18 25.18 44.18C25.09 44.18 25 44.19 24.92 44.23C24.88 44.25 24.85 44.28 24.82 44.31L16.89 60.29C16.68 60.71 16.25 60.98 15.77 61L15.74 61C15.28 61 14.85 60.75 14.62 60.35L11.41 54.75C11.3 54.56 11.09 54.44 10.87 54.44C10.83 54.44 10.79 54.44 10.76 54.45L4.35 55.62C4.27 55.63 4.19 55.64 4.11 55.64C3.72 55.64 3.34 55.45 3.1 55.13C2.8 54.74 2.75 54.22 2.97 53.78L9.86 39.79C9.95 39.61 9.95 39.39 9.86 39.22C9.76 39.04 9.59 38.92 9.39 38.89C7.73 38.65 6.15 38.33 5.25 37.03C4.29 35.65 4.59 33.91 4.89 32.23C5.1 31.01 5.23 30.11 5.05 29.53C4.89 29 4.3 28.38 3.48 27.57C2.31 26.41 1 25.1 1 23.34C1 21.58 2.31 20.27 3.47 19.13C4.29 18.31 4.89 17.69 5.05 17.16C5.23 16.58 5.1 15.68 4.89 14.47C4.59 12.77 4.29 11.03 5.25 9.65C6.23 8.24 8.02 7.98 9.6 7.76C10.7 7.61 11.58 7.47 12.02 7.13C12.46 6.8 12.84 6.01 13.33 4.93C14.06 3.34 14.8 1.71 16.42 1.16C16.74 1.05 17.07 1 17.42 1C18.68 1 19.94 1.71 20.95 2.29C22 2.87 22.77 3.28 23.34 3.28C23.92 3.28 24.69 2.87 25.73 2.29C26.75 1.71 28.01 1 29.27 1C29.61 1 29.95 1.05 30.27 1.16C31.88 1.71 32.63 3.34 33.35 4.91C33.84 6.01 34.23 6.8 34.67 7.13C35.11 7.47 35.99 7.61 37.08 7.76C38.66 7.98 40.45 8.24 41.44 9.65C42.39 11.03 42.09 12.77 41.8 14.45C41.6 15.63 41.45 16.57 41.64 17.16C41.8 17.69 42.39 18.31 43.22 19.12C44.38 20.27 45.69 21.58 45.69 23.34C45.69 25.11 44.37 26.41 43.22 27.56C42.39 28.38 41.8 29 41.63 29.53C41.45 30.11 41.6 31.06 41.8 32.23C42.09 33.91 42.39 35.65 41.44 37.03C40.53 38.33 38.96 38.65 37.3 38.89C37.1 38.92 36.92 39.04 36.83 39.22C36.74 39.39 36.73 39.61 36.82 39.79L43.72 53.78ZM21.25 44.73C21.13 44.62 20.97 44.56 20.81 44.56C20.71 44.56 20.6 44.58 20.51 44.64C19.59 45.14 18.52 45.68 17.42 45.68C17.08 45.68 16.74 45.63 16.42 45.52C14.8 44.97 14.06 43.34 13.34 41.77C13.27 41.62 13.2 41.46 13.13 41.3C13.02 41.09 12.8 40.94 12.56 40.94L12.56 40.94C12.32 40.94 12.1 41.08 11.99 41.29L6.96 51.51C6.85 51.72 6.88 51.97 7.02 52.16C7.14 52.32 7.33 52.41 7.52 52.41C7.56 52.41 7.6 52.41 7.63 52.4L11.62 51.68C11.71 51.66 11.79 51.65 11.87 51.65C12.32 51.65 12.74 51.9 12.97 52.3L15.07 55.97C15.18 56.16 15.39 56.28 15.62 56.28L15.64 56.28C15.87 56.27 16.08 56.14 16.18 55.93L21.38 45.47C21.5 45.22 21.45 44.92 21.25 44.73ZM36.73 36.37C38.45 36.13 39.06 35.94 39.32 35.56C39.6 35.17 39.58 34.49 39.26 32.67C39.05 31.41 38.8 29.99 39.18 28.76C39.55 27.58 40.49 26.64 41.4 25.74C42.56 24.58 43.11 23.93 43.11 23.34C43.11 22.75 42.56 22.1 41.4 20.95C40.49 20.04 39.55 19.1 39.18 17.92C38.8 16.7 39.05 15.27 39.26 14.01C39.58 12.19 39.6 11.51 39.33 11.12C39.06 10.74 38.48 10.56 36.75 10.31C35.5 10.14 34.12 9.95 33.11 9.18C32.12 8.43 31.56 7.19 31.01 5.99C30.35 4.55 29.96 3.84 29.5 3.62L29.46 3.61C29.36 3.57 29.26 3.55 29.14 3.55C28.7 3.55 28.14 3.86 27.34 4.32C27.22 4.4 27.1 4.47 26.99 4.53C25.89 5.15 24.64 5.86 23.34 5.86C22.05 5.86 20.8 5.15 19.7 4.53C18.59 3.91 17.91 3.57 17.45 3.57C17.44 3.57 17.41 3.57 17.39 3.57C17.31 3.57 17.22 3.6 17.15 3.63C16.75 3.83 16.41 4.37 15.68 5.98C15.13 7.18 14.56 8.43 13.58 9.18C12.57 9.95 11.18 10.14 9.96 10.31C8.2 10.56 7.62 10.74 7.36 11.12C7.09 11.51 7.1 12.18 7.42 14.01C7.64 15.27 7.89 16.69 7.51 17.92C7.14 19.1 6.2 20.04 5.28 20.95C4.12 22.1 3.57 22.75 3.57 23.34C3.57 23.93 4.12 24.58 5.28 25.74C6.2 26.64 7.14 27.58 7.51 28.76C7.89 29.99 7.64 31.41 7.42 32.67C7.1 34.49 7.09 35.17 7.36 35.56C7.63 35.94 8.23 36.13 9.96 36.37C11.18 36.54 12.57 36.74 13.58 37.51C14.56 38.26 15.13 39.5 15.68 40.7C16.34 42.13 16.73 42.85 17.19 43.06C17.24 43.08 17.29 43.1 17.34 43.11C17.4 43.12 17.45 43.13 17.51 43.13C17.97 43.13 18.54 42.81 19.36 42.34C19.48 42.27 19.59 42.21 19.69 42.15C20.8 41.53 22.04 40.82 23.34 40.82C24.63 40.82 25.89 41.53 26.99 42.15C27.48 42.43 28.67 43.07 29.21 43.11C29.23 43.11 29.25 43.11 29.26 43.11C29.36 43.11 29.45 43.09 29.54 43.05C29.93 42.86 30.27 42.31 31.01 40.7C31.55 39.5 32.12 38.26 33.11 37.51C34.12 36.74 35.5 36.54 36.73 36.37Z" />
							</g>
						</g>
					</g>
				</g>
			</g>
		</g>
	</g>
</svg>