<svg xmlns="http://www.w3.org/2000/svg" viewBox="0 0 60 61" width="60" height="61">
	<defs>
		<clipPath clipPathUnits="userSpaceOnUse" id="cp1">
			<path d="M-1075 -2077L845 -2077L845 3640L-1075 3640Z" />
		</clipPath>
	</defs>
	<style>
		tspan { white-space:pre }
		.shp0 { fill: #00bf6f } 
		.shp1 { fill: #ffffff } 
		.shp2 { fill: #003575 } 
	</style>
	<g id="Desktop-1" clip-path="url(#cp1)">
		<g id="Grupo 13379">
			<g id="Grupo 13211">
				<g id="Grupo 13133">
					<g id="Grupo 13216">
						<path id="Retângulo 11145" class="shp0" d="M0.94 2.84L58.39 2.84L58.39 36.74L0.94 36.74L0.94 2.84Z" />
						<path id="Retângulo 11147" class="shp0" d="M26.63 35.66L33.37 35.66L33.37 44.15L26.63 44.15L26.63 35.66Z" />
						<path id="Retângulo 11150" class="shp0" d="M3.66 51L10.4 51L10.4 59.49L3.66 59.49L3.66 51Z" />
						<path id="Retângulo 11151" class="shp0" d="M34.29 51L41.02 51L41.02 59.49L34.29 59.49L34.29 51Z" />
					</g>
					<path id="Caminho 3118" class="shp1" d="M24.61 10.46L24.61 29.38L39.55 19.79L24.61 10.46Z" />
					<path id="Retângulo 11146" class="shp1" d="M11.4 35.66L18.13 35.66L18.13 44.15L11.4 44.15L11.4 35.66Z" />
					<path id="Retângulo 11148" class="shp1" d="M41.87 35.66L48.6 35.66L48.6 44.15L41.87 44.15L41.87 35.66Z" />
					<path id="Retângulo 11149" class="shp1" d="M19.05 51L25.79 51L25.79 59.49L19.05 59.49L19.05 51Z" />
					<path id="Retângulo 11152" class="shp1" d="M49.53 51L56.26 51L56.26 59.49L49.53 59.49L49.53 51Z" />
					<g id="Grupo 13132">
						<path id="Caminho 3119" class="shp2" d="M58.71 1L1.29 1C0.58 1 0 1.58 0 2.29L0 36.74C0 37.45 0.58 38.03 1.29 38.03L5.11 38.03C5.82 38.03 6.4 37.45 6.4 36.74C6.4 36.03 5.82 35.46 5.11 35.46L3.2 35.46C2.85 35.46 2.57 35.18 2.57 34.83L2.57 4.2C2.57 3.85 2.85 3.57 3.2 3.57L56.8 3.57C57.15 3.57 57.43 3.85 57.43 4.2L57.43 34.83C57.43 35.18 57.15 35.46 56.8 35.46L54.88 35.46C54.18 35.46 53.6 36.03 53.6 36.74C53.6 37.45 54.18 38.03 54.88 38.03L58.71 38.03C59.42 38.03 60 37.45 60 36.74L60 2.29C60 1.58 59.42 1 58.71 1Z" />
						<path id="Caminho 3120" fill-rule="evenodd" class="shp2" d="M24.03 30.11C23.38 29.75 22.97 29.07 22.97 28.33L22.97 10.7C22.97 9.96 23.38 9.27 24.03 8.91C24.34 8.75 24.69 8.66 25.04 8.66C25.44 8.66 25.83 8.77 26.17 8.99L39.92 17.81C40.51 18.18 40.86 18.82 40.86 19.51C40.86 20.21 40.5 20.85 39.91 21.22L26.17 30.04C25.83 30.26 25.44 30.37 25.04 30.37C24.69 30.37 24.34 30.28 24.03 30.11ZM25.54 26.24C25.54 26.47 25.67 26.68 25.87 26.79C25.96 26.84 26.07 26.86 26.17 26.86C26.29 26.86 26.41 26.83 26.51 26.76L36.99 20.04C37.17 19.93 37.28 19.73 37.28 19.51C37.28 19.3 37.17 19.1 36.99 18.98L26.51 12.26C26.41 12.2 26.29 12.16 26.17 12.16C26.07 12.16 25.96 12.19 25.87 12.24C25.67 12.35 25.54 12.56 25.54 12.79L25.54 26.24Z" />
						<path id="Caminho 3121" fill-rule="evenodd" class="shp2" d="M19.8 38.66L19.8 42.49C19.8 42.83 20.08 43.11 20.43 43.11L24.26 43.11C24.6 43.11 24.88 42.83 24.88 42.49L24.88 38.66C24.88 35.84 27.18 33.54 30 33.54C32.82 33.54 35.11 35.84 35.11 38.66L35.11 42.49C35.11 42.83 35.4 43.11 35.74 43.11L39.57 43.11C39.92 43.11 40.2 42.83 40.2 42.49L40.2 38.66C40.2 35.84 42.49 33.54 45.31 33.54C48.13 33.54 50.43 35.84 50.43 38.66L50.43 42.49C50.43 42.83 50.71 43.11 51.06 43.11L52.97 43.11C53.68 43.11 54.26 43.69 54.26 44.4C54.26 45.11 53.68 45.68 52.97 45.68L7.03 45.68C6.32 45.68 5.74 45.11 5.74 44.4C5.74 43.69 6.32 43.11 7.03 43.11L8.94 43.11C9.29 43.11 9.57 42.83 9.57 42.49L9.57 38.66C9.57 35.84 11.87 33.54 14.69 33.54C17.51 33.54 19.8 35.84 19.8 38.66ZM17.23 38.66C17.23 37.25 16.09 36.11 14.69 36.11C13.28 36.11 12.14 37.25 12.14 38.66L12.14 42.49C12.14 42.83 12.42 43.11 12.77 43.11L16.6 43.11C16.95 43.11 17.23 42.83 17.23 42.49L17.23 38.66ZM42.77 42.49C42.77 42.83 43.05 43.11 43.4 43.11L47.23 43.11C47.58 43.11 47.86 42.83 47.86 42.49L47.86 38.66C47.86 37.25 46.72 36.11 45.31 36.11C43.91 36.11 42.77 37.25 42.77 38.66L42.77 42.49ZM27.46 42.49C27.46 42.83 27.74 43.11 28.09 43.11L31.91 43.11C32.26 43.11 32.54 42.83 32.54 42.49L32.54 38.66C32.54 37.25 31.4 36.11 30 36.11C28.6 36.11 27.46 37.25 27.46 38.66L27.46 42.49Z" />
						<path id="Caminho 3122" fill-rule="evenodd" class="shp2" d="M60 59.71C60 60.42 59.42 61 58.71 61L1.29 61C0.58 61 0 60.42 0 59.71C0 59 0.58 58.43 1.29 58.43C1.63 58.43 1.91 58.15 1.91 57.8L1.91 53.97C1.91 51.15 4.21 48.86 7.03 48.86C9.85 48.86 12.14 51.15 12.14 53.97L12.14 57.8C12.14 58.15 12.42 58.43 12.77 58.43L16.6 58.43C16.95 58.43 17.23 58.15 17.23 57.8L17.23 53.97C17.23 51.15 19.52 48.86 22.34 48.86C25.16 48.86 27.46 51.15 27.46 53.97L27.46 57.8C27.46 58.15 27.74 58.43 28.09 58.43L31.91 58.43C32.26 58.43 32.54 58.15 32.54 57.8L32.54 53.97C32.54 51.15 34.84 48.86 37.66 48.86C40.48 48.86 42.77 51.15 42.77 53.97L42.77 57.8C42.77 58.15 43.05 58.43 43.4 58.43L47.23 58.43C47.58 58.43 47.86 58.15 47.86 57.8L47.86 53.97C47.86 51.15 50.15 48.86 52.97 48.86C55.79 48.86 58.09 51.15 58.09 53.97L58.09 57.8C58.09 58.15 58.37 58.43 58.71 58.43C59.42 58.43 60 59 60 59.71ZM9.57 53.97C9.57 52.57 8.43 51.43 7.03 51.43C5.63 51.43 4.49 52.57 4.49 53.97L4.49 57.8C4.49 58.15 4.77 58.43 5.11 58.43L8.94 58.43C9.29 58.43 9.57 58.15 9.57 57.8L9.57 53.97ZM24.88 53.97C24.88 52.57 23.74 51.43 22.34 51.43C20.94 51.43 19.8 52.57 19.8 53.97L19.8 57.8C19.8 58.15 20.08 58.43 20.43 58.43L24.26 58.43C24.6 58.43 24.88 58.15 24.88 57.8L24.88 53.97ZM40.2 53.97C40.2 52.57 39.06 51.43 37.66 51.43C36.25 51.43 35.11 52.57 35.11 53.97L35.11 57.8C35.11 58.15 35.4 58.43 35.74 58.43L39.57 58.43C39.92 58.43 40.2 58.15 40.2 57.8L40.2 53.97ZM55.51 53.97C55.51 52.57 54.37 51.43 52.97 51.43C51.57 51.43 50.43 52.57 50.43 53.97L50.43 57.8C50.43 58.15 50.71 58.43 51.06 58.43L54.88 58.43C55.23 58.43 55.51 58.15 55.51 57.8L55.51 53.97Z" />
					</g>
				</g>
			</g>
		</g>
	</g>
</svg>