<svg xmlns="http://www.w3.org/2000/svg" viewBox="0 0 60 60" width="60" height="60">
	<defs>
		<clipPath clipPathUnits="userSpaceOnUse" id="cp1">
			<path d="M-1075 -3091L845 -3091L845 2626L-1075 2626Z" />
		</clipPath>
	</defs>
	<style>
		tspan { white-space:pre }
		.shp0 { fill: #73d7ff } 
		.shp1 { fill: #ffffff } 
		.shp2 { fill: #363d87 } 
	</style>
	<g id="Desktop-1" clip-path="url(#cp1)">
		<g id="Grupo 13377">
			<g id="Grupo 13333">
				<g id="Grupo 13305">
					<g id="Grupo 13306">
						<path id="Retângulo 11217" class="shp0" d="M0.92 28.09L16.6 28.09L16.6 58.41L0.92 58.41L0.92 28.09Z" />
						<g id="Grupo 13284">
							<path id="Retângulo 11218" class="shp0" d="M43.79 28.09L59.47 28.09L59.47 58.41L43.79 58.41L43.79 28.09Z" />
						</g>
						<g id="Grupo 13286">
							<path id="Retângulo 11220" class="shp0" d="M30.03 1.39L44.69 1.39L44.69 13.21L30.03 13.21L30.03 1.39Z" />
						</g>
					</g>
					<g id="Grupo 13285">
						<path id="Retângulo 11219" class="shp1" d="M15.79 20.06L44.28 20.06L44.28 58.41L15.79 58.41L15.79 20.06Z" />
					</g>
					<g id="Grupo 13304">
						<g id="Grupo 13287">
							<path id="Caminho 3248" fill-rule="evenodd" class="shp2" d="M60 28.09L60 58.71C60 59.42 59.42 60 58.71 60L1.29 60C0.58 60 0 59.42 0 58.71L0 28.09C0 27.38 0.58 26.8 1.29 26.8L14.69 26.8C15.03 26.8 15.31 26.52 15.31 26.17L15.31 20.43C15.31 19.72 15.89 19.14 16.6 19.14L28.09 19.14C28.43 19.14 28.71 18.86 28.71 18.52L28.71 1.29C28.71 0.58 29.29 0 30 0L47.23 0C47.7 0 48.14 0.26 48.36 0.68C48.59 1.1 48.56 1.6 48.3 2L45.18 6.68C45.04 6.89 45.04 7.17 45.18 7.38L48.3 12.06C48.56 12.45 48.59 12.96 48.36 13.38C48.14 13.8 47.7 14.06 47.23 14.06L31.91 14.06C31.57 14.06 31.29 14.34 31.29 14.69L31.29 18.52C31.29 18.86 31.57 19.14 31.91 19.14L43.4 19.14C44.11 19.14 44.69 19.72 44.69 20.43L44.69 26.17C44.69 26.52 44.97 26.8 45.31 26.8L58.71 26.8C59.42 26.8 60 27.38 60 28.09ZM31.29 10.86C31.29 11.2 31.57 11.49 31.91 11.49L43.65 11.49C43.88 11.49 44.1 11.36 44.21 11.15C44.32 10.95 44.3 10.7 44.17 10.51L42.33 7.74C42.04 7.31 42.04 6.75 42.33 6.31L44.17 3.55C44.3 3.36 44.32 3.11 44.21 2.9C44.1 2.7 43.88 2.57 43.65 2.57L31.91 2.57C31.57 2.57 31.29 2.85 31.29 3.2L31.29 10.86ZM15.31 30C15.31 29.65 15.03 29.37 14.69 29.37L3.2 29.37C2.85 29.37 2.57 29.65 2.57 30L2.57 56.8C2.57 57.15 2.85 57.43 3.2 57.43L14.69 57.43C15.03 57.43 15.31 57.15 15.31 56.8L15.31 30ZM42.11 22.34C42.11 22 41.83 21.71 41.49 21.71L18.51 21.71C18.17 21.71 17.89 22 17.89 22.34L17.89 56.8C17.89 57.15 18.17 57.43 18.51 57.43L20.43 57.43C20.77 57.43 21.06 57.15 21.06 56.8L21.06 51.06C21.06 50.35 21.63 49.77 22.34 49.77C23.05 49.77 23.63 50.35 23.63 51.06L23.63 56.8C23.63 57.15 23.91 57.43 24.26 57.43L35.74 57.43C36.09 57.43 36.37 57.15 36.37 56.8L36.37 51.06C36.37 50.35 36.95 49.77 37.66 49.77C38.37 49.77 38.94 50.35 38.94 51.06L38.94 56.8C38.94 57.15 39.22 57.43 39.57 57.43L41.49 57.43C41.83 57.43 42.11 57.15 42.11 56.8L42.11 22.34ZM57.43 30C57.43 29.65 57.15 29.37 56.8 29.37L45.31 29.37C44.97 29.37 44.69 29.65 44.69 30L44.69 56.8C44.69 57.15 44.97 57.43 45.31 57.43L56.8 57.43C57.15 57.43 57.43 57.15 57.43 56.8L57.43 30Z" />
						</g>
						<g id="Grupo 13288">
							<path id="Retângulo 11221" class="shp2" d="M21.06 34.46L23.63 34.46L23.63 37.03L21.06 37.03L21.06 34.46Z" />
						</g>
						<g id="Grupo 13289">
							<path id="Retângulo 11222" class="shp2" d="M7.66 34.46L10.23 34.46L10.23 37.03L7.66 37.03L7.66 34.46Z" />
						</g>
						<g id="Grupo 13290">
							<path id="Retângulo 11223" class="shp2" d="M7.66 42.11L10.23 42.11L10.23 44.69L7.66 44.69L7.66 42.11Z" />
						</g>
						<g id="Grupo 13291">
							<path id="Retângulo 11224" class="shp2" d="M7.66 49.77L10.23 49.77L10.23 52.34L7.66 52.34L7.66 49.77Z" />
						</g>
						<g id="Grupo 13292">
							<path id="Retângulo 11225" class="shp2" d="M49.77 34.46L52.34 34.46L52.34 37.03L49.77 37.03L49.77 34.46Z" />
						</g>
						<g id="Grupo 13293">
							<path id="Retângulo 11226" class="shp2" d="M49.77 42.11L52.34 42.11L52.34 44.69L49.77 44.69L49.77 42.11Z" />
						</g>
						<g id="Grupo 13294">
							<path id="Retângulo 11227" class="shp2" d="M49.77 49.77L52.34 49.77L52.34 52.34L49.77 52.34L49.77 49.77Z" />
						</g>
						<g id="Grupo 13295">
							<path id="Retângulo 11228" class="shp2" d="M28.71 34.46L31.29 34.46L31.29 37.03L28.71 37.03L28.71 34.46Z" />
						</g>
						<g id="Grupo 13296">
							<path id="Retângulo 11229" class="shp2" d="M36.37 34.46L38.94 34.46L38.94 37.03L36.37 37.03L36.37 34.46Z" />
						</g>
						<g id="Grupo 13297">
							<path id="Retângulo 11230" class="shp2" d="M21.06 42.11L23.63 42.11L23.63 44.69L21.06 44.69L21.06 42.11Z" />
						</g>
						<g id="Grupo 13298">
							<path id="Retângulo 11231" class="shp2" d="M28.71 42.11L31.29 42.11L31.29 44.69L28.71 44.69L28.71 42.11Z" />
						</g>
						<g id="Grupo 13299">
							<path id="Retângulo 11232" class="shp2" d="M28.71 49.77L31.29 49.77L31.29 52.34L28.71 52.34L28.71 49.77Z" />
						</g>
						<g id="Grupo 13300">
							<path id="Retângulo 11233" class="shp2" d="M36.37 42.11L38.94 42.11L38.94 44.69L36.37 44.69L36.37 42.11Z" />
						</g>
						<g id="Grupo 13301">
							<path id="Retângulo 11234" class="shp2" d="M21.06 26.8L23.63 26.8L23.63 29.37L21.06 29.37L21.06 26.8Z" />
						</g>
						<g id="Grupo 13302">
							<path id="Retângulo 11235" class="shp2" d="M28.71 26.8L31.29 26.8L31.29 29.37L28.71 29.37L28.71 26.8Z" />
						</g>
						<g id="Grupo 13303">
							<path id="Retângulo 11236" class="shp2" d="M36.37 26.8L38.94 26.8L38.94 29.37L36.37 29.37L36.37 26.8Z" />
						</g>
					</g>
				</g>
			</g>
		</g>
	</g>
</svg>