<svg xmlns="http://www.w3.org/2000/svg" viewBox="0 0 20 20" width="20" height="20">
	<defs>
		<clipPath clipPathUnits="userSpaceOnUse" id="cp1">
			<path d="M-1414 -5575L506 -5575L506 142L-1414 142Z" />
		</clipPath>
	</defs>
	<style>
		tspan { white-space:pre }
		.shp0 { fill: #808080 } 
	</style>
	<g id="Desktop-1" clip-path="url(#cp1)">
		<g id="Grupo 13113">
			<g id="Grupo 13108">
				<g id="logo-instagram">
					<path id="Caminho 2158" fill-rule="evenodd" class="shp0" d="M20 5.83L20 14.17C20 17.37 17.37 20 14.17 20L5.83 20C2.62 20 0 17.37 0 14.17L0 5.83C0 2.62 2.62 0 5.83 0L14.17 0C17.37 0 20 2.62 20 5.83ZM5.83 1.67C3.53 1.67 1.67 3.53 1.67 5.83L1.67 14.17C1.67 16.46 3.53 18.33 5.83 18.33L14.17 18.33C16.47 18.33 18.33 16.46 18.33 14.17L18.33 5.83C18.33 3.53 16.47 1.67 14.17 1.67L5.83 1.67Z" />
					<path id="Caminho 2159" class="shp0" d="M15.42 5.83C14.73 5.83 14.17 5.27 14.17 4.58C14.17 3.89 14.73 3.33 15.42 3.33C16.11 3.33 16.67 3.89 16.67 4.58C16.67 4.92 16.54 5.23 16.3 5.47C16.07 5.7 15.75 5.83 15.42 5.83Z" />
					<path id="Caminho 2160" fill-rule="evenodd" class="shp0" d="M15 10C15 12.76 12.76 15 10 15C7.24 15 5 12.76 5 10C5 7.24 7.24 5 10 5C12.76 5 15 7.24 15 10ZM6.67 10C6.67 11.84 8.16 13.33 10 13.33C11.84 13.33 13.33 11.84 13.33 10C13.33 8.16 11.84 6.67 10 6.67C8.16 6.67 6.67 8.16 6.67 10Z" />
				</g>
			</g>
		</g>
	</g>
</svg>