<svg xmlns="http://www.w3.org/2000/svg" viewBox="0 0 270 237" width="270" height="237">
	<defs>
		<clipPath clipPathUnits="userSpaceOnUse" id="cp1">
			<path d="M-1145 -3391L775 -3391L775 2326L-1145 2326Z" />
		</clipPath>
		<clipPath clipPathUnits="userSpaceOnUse" id="cp2">
			<path d="M125.92 133.49C124.48 129.67 122.31 126.54 121.07 122.59C119.38 117.22 118.23 109.58 120.17 104.03C122.23 98.14 124.75 93.49 124.9 86.92C125.03 81.3 123.9 75.77 122.77 70.29C121.66 64.87 121.15 63.3 115.84 62.47C113.95 62.17 112.08 61.66 110.2 61.33C106.99 60.76 103.75 60.5 100.5 60.5L100.5 60.5C100.45 60.5 100.41 60.5 100.37 60.5C100.33 60.5 100.28 60.5 100.24 60.5L100.24 60.5C96.99 60.5 93.74 60.76 90.54 61.33C88.65 61.66 86.78 62.17 84.89 62.47C79.58 63.3 79.08 64.87 77.96 70.29C76.84 75.77 75.7 81.3 75.83 86.92C75.99 93.49 78.51 98.14 80.57 104.03C82.5 109.58 81.36 117.22 79.67 122.59C78.42 126.54 76.26 129.67 74.82 133.49C74.71 133.79 74.6 134.11 74.69 134.42C74.8 134.82 75.19 135.06 75.54 135.25C82.6 138.93 90.51 140.04 98.24 140.61C98.92 140.66 99.58 140.71 100.23 140.75L100.23 140.77C100.28 140.77 100.32 140.76 100.37 140.76C100.41 140.76 100.46 140.77 100.5 140.77L100.5 140.75C101.16 140.71 101.82 140.66 102.5 140.61C110.23 140.04 118.14 138.93 125.19 135.25C125.55 135.06 125.94 134.82 126.05 134.42C126.14 134.11 126.03 133.79 125.92 133.49Z" />
		</clipPath>
	</defs>
	<style>
		tspan { white-space:pre }
		.shp0 { fill: #66a5af } 
		.shp1 { fill: #66bbc4 } 
		.shp2 { fill: #8ed2cc } 
		.shp3 { fill: #94624f } 
		.shp4 { fill: #00a09d } 
		.shp5 { fill: #1d7e8e } 
		.shp6 { opacity: 0.2;fill: #ffffff } 
		.shp7 { fill: #0b2d4e } 
		.shp8 { fill: #061f33 } 
		.shp9 { fill: #73b8d4 } 
		.shp10 { fill: none;stroke: #0b2d4e;stroke-width: 4 } 
		.shp11 { fill: #f8a17a } 
		.shp12 { fill: #fbae3e } 
		.shp13 { fill: #ffcd56 } 
		.shp14 { fill: #e5785c } 
		.shp15 { fill: #b8d1ce } 
		.shp16 { fill: #ffffff } 
		.shp17 { fill: #0098d7 } 
	</style>
	<g id="Desktop-1" clip-path="url(#cp1)">
		<g id="Grupo 13346">
			<g id="Grupo 13328">
				<g id="Grupo 13155">
					<path id="Retângulo 11156" class="shp0" d="M187.94 204.94L79.11 204.94L79.11 160.71L187.94 160.71L187.94 204.94Z" />
					<path id="Caminho 3148" class="shp1" d="M31.17 182.69L121.23 182.69C128.61 182.69 134.6 176.08 134.6 167.93L134.6 104.46C134.6 96.3 128.61 89.69 121.23 89.69C121.23 89.69 96.32 92.89 76.77 92.89C57.23 92.89 31.17 89.69 31.17 89.69C23.79 89.69 17.8 96.3 17.8 104.46L17.8 167.93C17.8 176.08 23.79 182.69 31.17 182.69Z" />
					<path id="Caminho 3149" class="shp0" d="M46.17 205.92L104.89 205.92C121.18 205.92 134.32 191.03 134.08 172.84C134.08 172.84 134.3 120.86 134.11 108.78C134.08 172.84 16.98 172.84 17.81 109.23C17.58 125.1 16.98 172.84 16.98 172.84C16.74 191.03 29.88 205.92 46.17 205.92Z" />
					<path id="Caminho 3150" class="shp2" d="M120.86 89.69L31.12 89.69C31.12 89.69 51.05 98.08 76.56 98.08C102.06 98.08 120.86 89.69 120.86 89.69Z" />
					<path id="Caminho 3151" class="shp3" d="M252.44 236.55L252.44 236.55C254.15 236.04 255.08 234.11 254.56 232.19L247.46 202.84L237.86 205.75L248.27 234.1C248.89 235.98 250.74 237.07 252.44 236.55Z" />
					<path id="Caminho 3152" class="shp3" d="M17.39 236.55L17.39 236.55C15.69 236.04 14.75 234.11 15.28 232.19L22.38 202.84L31.98 205.75L21.57 234.1C20.94 235.98 19.09 237.07 17.39 236.55Z" />
					<path id="Caminho 3153" class="shp1" d="M147.72 181.71L238.27 181.71C245.69 181.71 251.71 175.1 251.71 166.95L251.71 103.48C251.71 95.33 245.69 88.72 238.27 88.72C238.27 88.72 213.23 91.91 193.57 91.91C173.92 91.91 147.72 88.72 147.72 88.72C140.3 88.72 134.28 95.33 134.28 103.48L134.28 166.95C134.28 175.1 140.3 181.71 147.72 181.71Z" />
					<path id="Caminho 3154" class="shp0" d="M163.22 204.94L222.26 204.94C238.64 204.94 251.85 190.05 251.61 171.86C251.61 171.86 251.83 119.88 251.63 107.8C251.61 171.86 133.87 171.86 134.71 108.26C134.47 124.12 133.87 171.86 133.87 171.86C133.63 190.05 146.84 204.94 163.22 204.94Z" />
					<path id="Caminho 3155" class="shp1" d="M187.94 200.15C164.4 200.13 45.12 200.19 21.58 200.19C20.97 200.19 11.1 189.9 8.63 184.79C5.94 179.25 4.55 174.18 3 168.71C0.41 159.61 -2.27 146.6 3.15 137.97C5.51 134.2 10.3 131.61 14.51 133.08C20.4 135.13 22.31 141.56 23.18 147.14C25.26 160.56 31.13 174.58 45.4 178.4C53.24 180.5 61.7 180.03 69.77 180.04C70.81 180.04 187.93 180.17 187.93 179.69C187.94 186.51 187.94 193.33 187.94 200.15Z" />
					<path id="Caminho 3156" class="shp1" d="M185.09 200.15C208.63 200.13 224.88 200.19 248.42 200.19C249.03 200.19 258.9 189.9 261.37 184.79C264.06 179.25 265.45 174.18 267 168.71C269.59 159.61 272.27 146.6 266.85 137.97C264.49 134.2 259.7 131.61 255.49 133.08C249.6 135.13 247.69 141.56 246.82 147.14C244.74 160.56 238.87 174.58 224.6 178.4C216.76 180.5 208.3 180.03 200.23 180.04C199.19 180.04 185.1 180.17 185.1 179.69C185.1 186.51 185.1 193.33 185.09 200.15Z" />
					<g id="Grupo 13152">
						<path id="Caminho 3157" class="shp1" d="M134.5 160.71C134.5 166 140.2 180.77 187.84 180.77C235.49 180.77 241.18 166 241.18 160.71C241.18 155.42 217.3 151.14 187.84 151.14C158.39 151.14 134.5 155.42 134.5 160.71Z" />
						<path id="Caminho 3158" class="shp2" d="M134.5 160.71C142.42 155.69 233.03 155.62 241.18 160.71C241.18 155.42 217.3 151.14 187.84 151.14C158.39 151.14 134.5 155.42 134.5 160.71Z" />
						<path id="Caminho 3159" class="shp0" d="M134.6 160.71C134.6 166 140.3 180.77 187.94 180.77C235.58 180.77 241.28 166 241.28 160.71C235.03 180.77 140.2 180.77 134.6 160.71Z" />
					</g>
					<g id="Grupo 13153">
						<path id="Caminho 3160" class="shp1" d="M27.51 160.71C27.51 166 33.2 180.77 80.85 180.77C128.49 180.77 134.19 166 134.19 160.71C134.19 155.42 110.3 151.14 80.85 151.14C51.39 151.14 27.51 155.42 27.51 160.71Z" />
						<path id="Caminho 3161" class="shp2" d="M27.51 160.71C35.42 155.69 126.03 155.62 134.19 160.71C134.19 155.42 110.3 151.14 80.85 151.14C51.39 151.14 27.51 155.42 27.51 160.71Z" />
						<path id="Caminho 3162" class="shp0" d="M27.6 160.71C27.6 166 33.3 180.77 80.94 180.77C128.58 180.77 134.28 166 134.28 160.71C128.03 180.77 33.2 180.77 27.6 160.71Z" />
					</g>
					<path id="Caminho 3163" class="shp2" d="M238.32 88.72L148.09 88.72C148.09 88.72 168.13 97.1 193.77 97.1C219.41 97.1 238.32 88.72 238.32 88.72Z" />
					<path id="Retângulo 11157" class="shp3" d="M248.42 205.92L21.67 205.92L21.67 200.19L248.42 200.19L248.42 205.92Z" />
					<g id="Grupo 13154">
						<path id="Caminho 3164" class="shp4" d="M19.71 132.08C20 133.46 24.07 148.69 24.32 150.72C24.57 152.74 24.12 159.12 24.15 157.99C24.17 156.85 24.03 160.39 26.26 160.07C27.37 159.91 51.24 155.18 59.86 153.93C68.51 152.67 77.27 152.8 78.11 152.66C79.81 152.37 80.42 151.46 81.02 148.85C81.63 146.23 77.94 135.59 77.39 132.16C76.84 128.72 78.15 126.45 77.77 124.76C77.28 122.53 75.14 121.8 73.31 122.03C72.25 122.16 61.45 124.29 53.01 125.32C44.7 126.35 23.39 128.38 22.52 128.49C20.77 128.7 19.42 130.69 19.71 132.08Z" />
						<path id="Caminho 3165" class="shp5" d="M19.86 132.06C20.15 133.44 24.22 148.67 24.47 150.7C24.72 152.73 24.27 159.1 24.3 157.97C24.32 156.83 24.18 160.37 26.41 160.05C27.52 159.89 51.39 155.16 60.01 153.91C68.66 152.66 77.42 152.78 78.27 152.64C79.96 152.36 80.57 151.44 81.18 148.83C81.45 147.64 80.84 144.8 80.04 141.73C61.83 150.74 24.63 160.95 24.78 128.38C23.66 128.42 22.94 128.44 22.67 128.47C20.92 128.68 19.57 130.67 19.86 132.06Z" />
						<path id="Caminho 3166" class="shp6" d="M77.77 124.76C77.28 122.53 75.14 121.8 73.3 122.03C72.25 122.16 61.45 124.29 53.01 125.32C48.53 125.88 29.37 128.21 26.69 128.33C37.24 140.96 78.15 126.45 77.77 124.76Z" />
					</g>
				</g>
				<g id="Grupo 13158">
					<g id="Grupo 13156">
						<path id="Caminho 3167" class="shp7" d="M185 145.7C179.84 145.46 174.7 146.29 169.6 147.12C167.98 147.38 166.28 148.27 167.49 150.2C168.16 151.25 169.54 151.56 170.78 151.71C176.11 152.32 181.59 151.64 186.94 151.65" />
						<path id="Caminho 3168" class="shp8" d="M222.97 138.55C223.76 143.33 221.51 150.25 216.29 151.65C214.18 152.21 211.64 152.01 209.47 152C206.82 151.98 204.17 151.96 201.53 151.94C196.33 151.91 191.13 151.87 185.93 151.83C182.5 151.81 178.86 151.72 175.99 149.83C172.6 147.59 170.9 143.44 173.16 139.87C175.1 136.8 178.74 134.92 182.2 134.17C188 132.92 194.03 134.58 199.8 133.54C200.73 133.37 201.65 133.13 202.57 132.8C207.78 130.91 212.95 128.31 218.27 131.39C220.82 132.87 222.5 135.64 222.97 138.55Z" />
						<path id="Caminho 3169" class="shp7" d="M179.9 128.24C179.03 127.32 178.5 127.14 177.97 128.45C177.37 129.96 176.96 131.6 176.98 133.23C174.81 133.68 172.75 134.68 171.01 136.07C169.67 135.12 168.08 134.52 166.49 134.17C165.12 133.86 164.96 134.4 165.23 135.63C165.55 137.16 166.07 138.63 166.57 140.11C166.89 141.03 167.17 141.96 167.49 142.88C167.72 143.83 168.17 144.74 168.72 145.43C170.24 147.32 173.26 148.41 175.6 148.72C178.25 149.07 180.77 148.4 182.55 146.38C184.15 144.57 185.25 142.11 185.66 139.74C185.9 138.39 185.79 136.95 185.31 135.65C184.78 134.19 183.73 133.12 182.82 131.9C181.88 130.65 180.97 129.38 179.9 128.24Z" />
						<path id="Caminho 3170" class="shp7" d="M219.06 134.74C224.06 139.49 223.53 144.97 220.78 149.82C217.72 155.19 212.68 158.83 207.06 161.19C200.43 163.99 192.84 165.42 185.74 163.74C184.31 163.4 182.75 162.7 182.33 161.3C181.08 157.14 187.57 157.21 189.88 157.02C194.64 156.61 199.68 156.56 204.3 155.02C209.37 153.32 212.99 149.7 215.52 145.07" />
						<path id="Caminho 3171" class="shp7" d="M222.68 142.4C222.66 140.17 221.9 137.94 220.51 136.19C216.98 131.75 210.11 131.61 205.38 134.02C199.95 136.78 199.09 144.1 201.21 149.25C201.31 149.48 199.31 149.42 199.14 149.43C197.71 149.53 194.74 149.25 194.16 151.01C193.78 152.19 194.57 153.79 195.75 154.17C196.25 154.33 196.78 154.33 197.29 154.33C201.01 154.32 204.73 154.33 208.45 154.34C211.36 154.35 213.56 153.81 215.3 151.32C216.21 150.03 216.9 148.59 217.87 147.34" />
						<path id="Elipse 74" class="shp8" d="M178.6 145.47C177.97 145.71 177.28 145.47 177.07 144.92C176.86 144.38 177.2 143.74 177.84 143.5C178.47 143.25 179.15 143.5 179.36 144.04C179.57 144.58 179.23 145.22 178.6 145.47Z" />
					</g>
					<g id="Grupo 13157">
						<path id="Caminho 3172" class="shp9" d="M184.6 134.08C184.77 134.41 185 134.69 185.21 135C185.31 135.15 185.41 135.32 185.48 135.5C185.56 135.68 185.61 135.86 185.66 136.05C185.75 136.42 185.8 136.79 185.85 137.15C185.9 137.51 185.94 137.89 185.96 138.27C186 139.02 185.95 139.78 185.83 140.52C185.71 141.27 185.5 142 185.24 142.71C184.96 143.41 184.62 144.09 184.22 144.73C183.81 145.36 183.34 145.96 182.8 146.49C182.27 147.02 181.68 147.49 181.04 147.89C180.71 148.07 180.37 148.24 180 148.34C179.64 148.44 179.25 148.47 178.89 148.4C179.63 148.39 180.29 148.04 180.85 147.61C181.14 147.39 181.41 147.15 181.67 146.9C181.8 146.77 181.93 146.65 182.05 146.52C182.18 146.39 182.3 146.26 182.41 146.12C182.88 145.58 183.31 145.01 183.67 144.39C184.03 143.77 184.35 143.13 184.6 142.46C185.11 141.13 185.4 139.71 185.43 138.27C185.44 137.91 185.42 137.56 185.4 137.19C185.39 136.82 185.37 136.46 185.33 136.11C185.31 135.93 185.28 135.75 185.24 135.59C185.19 135.42 185.12 135.26 185.04 135.09C184.89 134.77 184.7 134.44 184.6 134.08Z" />
					</g>
				</g>
				<g id="Grupo 13164">
					<g id="Grupo 13163">
						<path id="Caminho 3173" class="shp7" d="M133.87 86.38C128.67 88.5 122.12 87.86 117.53 84.6C112.92 81.32 108.69 78.91 102.83 78.73C99.19 78.63 95.78 80.15 92.31 81.02C89.27 81.78 86.94 84.23 83.65 84.68C79.33 85.27 74.9 82.62 72.95 78.71C71.01 74.81 71.43 69.95 73.61 66.17C75.19 63.41 76.65 61.35 74.87 58.28C74.48 57.61 73.99 56.99 73.73 56.26C73.48 55.57 73.44 54.83 73.47 54.1C73.63 50.11 76.65 47.12 78.66 43.83C79.13 43.06 79.6 42.27 79.74 41.38C80.1 39.11 78.3 37.15 77.34 35.07C74.23 28.31 79.54 20.63 84.71 16.58C87.75 14.19 91.41 13.23 94.69 11.28C96.19 10.39 97.55 9.29 99.07 8.44C101.71 6.94 104.59 6.88 107.52 7.29C115.87 8.46 125.37 14.53 127.3 23.27C128.61 29.2 126.47 36.08 132.33 40.23C134.1 41.48 136.33 42.22 137.54 44.02C140.1 47.84 136.34 53.5 138.68 57.45C139.2 58.34 139.98 59.03 140.69 59.77C144.44 63.67 146.38 69.25 145.85 74.64C145.72 75.96 145.45 77.28 144.8 78.43C143.91 80.01 142.39 81.13 140.92 82.18C138.71 83.76 136.45 85.32 133.94 86.35C133.92 86.36 133.89 86.37 133.87 86.38Z" />
						<path id="Caminho 3174" class="shp10" d="M141.44 64.26C138.85 62.03 138.29 58.14 139.04 54.8C139.53 52.62 140.5 50.49 140.42 48.26C140.31 45.46 138.36 42.82 135.72 41.89C134.37 41.41 132.89 41.35 131.6 40.73C129.65 39.8 128.57 37.84 127.86 35.89C127.09 33.77 127.41 31.96 127.4 29.74C127.39 26.9 127.31 24.06 127.03 21.23C126.69 17.97 124.74 14.74 122.51 12.4C122.19 12.07 121.85 11.74 121.5 11.43C115.7 6.25 104.6 3.98 97.72 8.2C96.35 9.04 95.5 10.2 94.41 11.31C93.31 12.44 91.87 13.35 90.54 14.19C87.84 15.89 84.94 17.22 82.09 18.63C80.27 19.54 78.41 20.51 77.08 22.04C75.46 23.89 74.75 26.41 74.82 28.86C74.89 31.31 75.7 33.69 76.82 35.87C77.61 37.41 78.57 38.88 79.08 40.54C79.9 43.24 78.33 45.78 76.34 47.51C74.83 48.82 73.09 50.02 72.26 51.84C71.58 53.36 71.64 55.19 72.43 56.65C73.16 58.02 74.46 59.03 75.14 60.42C75.8 61.75 75.82 63.38 75.2 64.74C74.4 66.46 72.58 68.05 73.18 69.85" />
						<path id="Caminho 3175" class="shp7" d="M131.19 144.22C130.5 146.17 129.58 147.85 128.68 149.25C123.77 156.85 117.9 162.05 112.07 165.4C106.87 168.39 101.42 168.26 96.1 167.1C92.47 166.3 88.85 163.8 85.34 161.48C81.74 159.1 78.18 156.26 74.81 152.48C72.17 149.5 69.79 145.81 69.39 138.78C69.23 136.01 69.5 132.95 70.46 131.07C71.61 128.81 73.35 128.89 74.9 129.16C83.69 130.67 92.2 137.23 101.04 137.35C105.98 137.42 110.59 134.57 115.33 132C118.99 130.01 123.06 127.82 126.87 128.24C130.32 128.62 133.74 137.1 131.19 144.22Z" />
						<path id="Caminho 3176" class="shp11" d="M75.99 127.76C75.78 127.28 75.56 126.78 75.33 126.27C72.96 120.96 71.21 115.36 70.16 109.63C69.78 107.57 69.39 105.31 67.81 103.92C65.63 102.01 61.38 102.25 58.68 102.61C57.41 102.78 56.09 103.22 55.33 104.24C54.06 105.93 54.19 109.75 54.14 111.79C53.84 124.18 63.63 134.42 71.61 142.78C73.15 144.39 74.81 146.02 76.94 146.67C79.07 147.32 81.77 146.65 82.7 144.63C83.38 143.14 82.97 141.4 82.42 139.86C81.5 137.21 80.1 134.78 78.5 132.48C77.43 130.92 76.72 129.4 75.99 127.76Z" />
						<path id="Caminho 3177" class="shp8" d="M122.86 60.43C123.19 62.59 122.94 64.81 122 66.78C119.44 72.1 113.11 73.14 107.77 73.34C105.8 73.42 103.81 73.32 101.85 73.03C100.11 72.77 98.56 73.04 96.79 73C93.31 72.92 89.85 71.89 86.91 70.02C85.48 69.11 84.13 67.96 83.4 66.44C82.39 64.34 82.68 61.85 83.22 59.59C83.52 58.28 83.91 56.97 84.58 55.8C85.3 54.56 86.34 53.5 86.93 52.19C88.06 49.73 87.14 46.86 88.14 44.44C88.92 42.55 90.9 40.42 92.53 39.24C94.76 37.63 97.63 37.13 100.37 37.31C103.11 37.5 105.77 38.33 108.38 39.18C110.43 39.85 112.2 39.43 113.71 41.13C114.9 42.48 114.49 44.68 114.87 46.31C116.15 51.79 122 54.69 122.86 60.43Z" />
						<path id="Caminho 3178" class="shp12" d="M85.06 84.79C81.57 90.76 77.64 96.5 73.89 102.32C71.8 105.57 69.67 108.87 68.55 112.56C63.38 112.44 58.19 111.34 53.11 110.37C53.92 103.51 57.55 97.29 60.79 91.31C64.16 85.07 67.8 78.98 70.98 72.65C73.56 67.49 78.38 61.34 84.84 64.44C89.8 66.82 89.03 73.65 88 78.06C87.46 80.41 86.32 82.62 85.06 84.79Z" />
						<path id="Caminho 3179" class="shp11" d="M124.14 127.76C124.36 127.28 124.57 126.78 124.8 126.27C127.18 120.96 128.92 115.36 129.98 109.63C130.36 107.57 130.74 105.31 132.32 103.92C134.5 102.01 138.76 102.25 141.46 102.61C142.72 102.78 144.04 103.22 144.81 104.24C146.07 105.93 145.94 109.75 145.99 111.79C146.3 124.18 136.5 134.42 128.52 142.78C126.99 144.39 125.32 146.02 123.19 146.67C121.07 147.32 118.37 146.65 117.43 144.63C116.75 143.14 117.17 141.4 117.71 139.86C118.64 137.21 120.04 134.78 121.63 132.48C122.71 130.92 123.42 129.4 124.14 127.76Z" />
						<path id="Caminho 3180" class="shp12" d="M115.08 84.79C118.56 90.76 122.49 96.5 126.24 102.32C128.34 105.57 130.46 108.87 131.58 112.56C136.76 112.44 141.95 111.34 147.03 110.37C146.21 103.51 142.59 97.29 139.35 91.31C135.97 85.07 132.34 78.98 129.16 72.65C126.58 67.49 121.75 61.34 115.3 64.44C110.33 66.82 111.11 73.65 112.13 78.06C112.68 80.41 113.81 82.62 115.08 84.79Z" />
						<g id="Grupo 13160">
							<path id="Caminho 3181" class="shp13" d="M125.92 133.49C124.48 129.67 122.31 126.54 121.07 122.59C119.38 117.22 118.23 109.58 120.17 104.03C122.23 98.14 124.75 93.49 124.9 86.92C125.03 81.3 123.9 75.77 122.77 70.29C121.66 64.87 121.15 63.3 115.84 62.47C113.95 62.17 112.08 61.66 110.2 61.33C106.99 60.76 103.75 60.5 100.5 60.5L100.5 60.5C100.45 60.5 100.41 60.5 100.37 60.5C100.33 60.5 100.28 60.5 100.24 60.5L100.24 60.5C96.99 60.5 93.74 60.76 90.54 61.33C88.65 61.66 86.78 62.17 84.89 62.47C79.58 63.3 79.08 64.87 77.96 70.29C76.84 75.77 75.7 81.3 75.83 86.92C75.99 93.49 78.51 98.14 80.57 104.03C82.5 109.58 81.36 117.22 79.67 122.59C78.42 126.54 76.26 129.67 74.82 133.49C74.71 133.79 74.6 134.11 74.69 134.42C74.8 134.82 75.19 135.06 75.54 135.25C82.6 138.93 90.51 140.04 98.24 140.61C98.92 140.66 99.58 140.71 100.23 140.75L100.23 140.77C100.28 140.77 100.32 140.76 100.37 140.76C100.41 140.76 100.46 140.77 100.5 140.77L100.5 140.75C101.16 140.71 101.82 140.66 102.5 140.61C110.23 140.04 118.14 138.93 125.19 135.25C125.55 135.06 125.94 134.82 126.05 134.42C126.14 134.11 126.03 133.79 125.92 133.49Z" />
							<g id="Grupo 13159" clip-path="url(#cp2)">
								<path id="Caminho 3182" class="shp13" d="M117.17 63.61C117.5 62.6 118.73 60.35 118.11 59.47C117.48 58.58 115.16 58.77 114.25 58.8C104.27 59.14 94.29 59.48 84.31 59.81C84.89 61.95 84.91 63.94 85.73 66.06C86.43 67.86 87.36 69.57 88.54 71.09C90.9 74.14 94.23 76.28 98.02 77.03C104.45 78.29 111.55 75.15 114.81 69.47C115.86 67.63 116.52 65.61 117.17 63.61Z" />
							</g>
						</g>
						<path id="Caminho 3184" class="shp11" d="M92.89 71.07C96.01 74.62 102.02 74.91 106.23 73.45C109.09 72.46 111.12 70.2 111.18 67.1C111.24 63.63 108.2 61.17 107.43 57.93C106.99 56.1 107.04 54.21 107.08 52.35C107.14 50.17 107.15 47.99 107.26 45.81C105.1 45.36 103.35 45.13 101.07 45.22C99.17 45.3 97.28 45.1 95.39 45.22C95.24 45.22 95.07 45.24 94.96 45.34C94.86 45.44 94.84 45.6 94.82 45.75C94.57 48.69 94.82 51.67 94.62 54.61C94.44 57.32 93.83 60.04 92.25 62.28C90.31 65.02 90.79 68.69 92.89 71.07Z" />
						<g id="Grupo 13162">
							<g id="Grupo 13161">
								<path id="Caminho 3185" class="shp9" d="M98.64 14.3C100.21 13.48 101.99 13.09 103.76 13.01C105.54 12.93 107.32 13.16 109.05 13.56C112.52 14.33 115.79 16.1 118.31 18.63C120.85 21.15 122.62 24.48 123.12 28.05C123.37 29.83 123.28 31.62 123.31 33.38C123.35 35.12 123.49 36.91 124.22 38.46C124.95 40.02 126.23 41.28 127.63 42.29C129.05 43.31 130.62 44.13 132.14 45.07C132.88 45.54 133.68 46.03 134.23 46.81C134.79 47.6 134.91 48.57 134.92 49.47C134.93 50.37 134.82 51.28 134.58 52.15C134.35 53.03 133.94 53.84 133.6 54.64C133.26 55.45 133.04 56.28 133.13 57.14C133.2 57.99 133.49 58.82 133.86 59.62C134.61 61.2 135.53 62.72 136.3 64.33C137.06 65.93 137.64 67.65 137.78 69.43C137.94 71.2 137.71 73 137.13 74.67C137.67 72.99 137.85 71.19 137.66 69.44C137.48 67.68 136.87 66.01 136.08 64.44C135.29 62.85 134.36 61.35 133.57 59.75C133.19 58.94 132.87 58.08 132.78 57.17C132.67 56.25 132.9 55.32 133.25 54.5C133.59 53.67 133.97 52.88 134.18 52.04C134.4 51.2 134.5 50.34 134.49 49.47C134.48 48.61 134.35 47.74 133.87 47.06C133.39 46.39 132.64 45.92 131.9 45.46C130.4 44.54 128.81 43.72 127.35 42.68C125.9 41.64 124.56 40.34 123.76 38.68C122.99 37 122.87 35.15 122.84 33.39C122.81 31.61 122.9 29.84 122.67 28.11C122.2 24.64 120.48 21.41 118.04 18.9C115.6 16.39 112.42 14.61 108.99 13.79C107.29 13.36 105.53 13.1 103.76 13.13C102 13.17 100.23 13.52 98.64 14.3Z" />
							</g>
						</g>
						<path id="Caminho 3186" class="shp14" d="M107.31 57.5C106.97 55.79 107 54.05 107.04 52.32C107.1 50.14 107.11 47.96 107.22 45.79C105.06 45.33 103.31 45.1 101.03 45.2C99.13 45.28 97.24 45.08 95.35 45.19C95.2 45.2 95.03 45.22 94.92 45.32C94.82 45.42 94.8 45.58 94.78 45.73C94.53 48.66 94.78 51.64 94.58 54.59C94.52 55.43 94.42 56.27 94.26 57.1C94.56 57.36 94.86 57.61 95.17 57.84C97.51 59.57 100.66 60.15 103.46 59.35C104.88 58.95 106.16 58.31 107.31 57.5Z" />
						<path id="Caminho 3187" class="shp11" d="M115.29 34.14C115.23 31.26 114.79 28.53 114.02 26.27C110.68 16.51 98.42 14.27 91.16 21.41C83.06 29.37 86.47 48.08 95.21 54.54C97.55 56.27 100.7 56.84 103.5 56.05C111.96 53.65 115.47 43.15 115.29 34.14Z" />
						<path id="Caminho 3188" class="shp14" d="M115.27 25.68C112.64 15.71 100.58 12.59 92.82 19.19C91.59 20.24 90.73 21.5 89.85 22.84C89.1 23.98 88.06 24.84 87.4 26.09C86.72 27.38 86.29 28.8 86.15 30.25C86.02 31.66 86.48 32.89 86.51 34.24C86.48 32.83 87.09 31.41 88.15 30.47C88.97 29.74 90.01 29.31 90.96 28.77C91.92 28.23 92.86 27.5 93.22 26.46C96.3 30.51 101.09 31.74 105.8 32.91C109.75 33.89 114.09 36.38 114.18 41C114.19 41.58 114.23 41.74 114.48 42.51C114.76 41.82 114.86 41.31 114.94 40.57C115.03 39.81 115.25 39.07 115.39 38.31C115.7 36.77 115.89 35.2 115.97 33.62C116.12 30.74 115.88 27.99 115.27 25.68Z" />
						<path id="Caminho 3189" class="shp7" d="M117.52 42.79C118.3 42.19 118.9 41.32 119.24 40.4C120.29 37.3 120.18 33.88 120.05 30.56C119.98 28.71 119.9 26.83 119.39 25.07C118.84 23.14 117.8 21.43 116.56 19.97C112.98 15.74 107.65 13.59 102.52 14.03C100.46 14.21 98.94 15.2 97.13 16.03C95.37 16.85 93.29 17.3 91.43 17.91C89.29 18.62 87.08 19.36 85.38 20.85C84.14 21.93 83.24 23.36 82.59 24.88C81.81 26.7 81.74 28.72 81.96 30.67C82.14 32.27 82.35 33.97 83.06 35.47C83.73 36.87 85.21 37.78 86.53 38.48C86.33 38.37 86.5 36.06 86.5 35.71C86.47 33.67 86.58 31.58 87.22 29.63C87.84 27.72 89.06 26.55 90.64 25.39C91.28 24.92 91.92 24.44 92.45 23.85C92.71 23.56 93.87 22.21 93.68 21.79C94.58 23.78 96 25.82 97.76 27.12C101.11 29.59 104.85 31.34 108.63 32.82C108.91 32.93 109.19 33.03 109.47 33.15C110.51 33.56 111.54 34.04 112.4 34.82C114.31 36.56 114.44 39.23 114.37 41.64C114.36 41.9 114.36 42.17 114.44 42.42C114.84 43.6 116.75 43.37 117.52 42.79Z" />
						<path id="Caminho 3190" class="shp15" d="M64.74 100.81L64.14 102.25L136.63 102.25L135.9 100.63L64.74 100.81Z" />
						<path id="Caminho 3191" class="shp15" d="M131.63 148.06L69.11 148.06L64.63 101.52C64.55 100.68 65.2 99.96 66.02 99.96L134.71 99.96C135.54 99.96 136.18 100.68 136.1 101.52L131.63 148.06Z" />
						<path id="Caminho 3192" class="shp16" d="M132.12 149.38L68.62 149.38L64.07 102.84C63.99 102 64.65 101.28 65.48 101.28L135.25 101.28C136.09 101.28 136.75 102 136.66 102.84L132.12 149.38Z" />
						<path id="Retângulo 11158" class="shp15" d="M68.62 149.38L132.08 149.38L132.08 152.2L68.62 152.2L68.62 149.38Z" />
						<path id="Elipse 75" class="shp15" d="M104.7 126.1C104.27 128.5 101.99 130.09 99.59 129.66C97.2 129.23 95.61 126.95 96.03 124.55C96.46 122.16 98.75 120.56 101.14 120.99C103.54 121.42 105.13 123.71 104.7 126.1Z" />
						<path id="Caminho 3193" class="shp7" d="M92.88 169.97C95.79 169.45 98.68 168.87 101.55 168.4C115.94 166 130.95 163.18 144.02 156.44C147.04 154.88 150.17 152.42 151.74 149.36C155.84 141.3 147.65 133.74 139.65 136.03C126.28 139.85 114.68 148.13 101.87 153.52C99.73 154.42 97.58 155.36 95.41 156.31C93.55 157.12 91.68 157.94 89.81 158.73" />
						<path id="Caminho 3194" class="shp11" d="M89.81 158.73C87.67 159.64 85.51 160.53 83.36 161.36C81.15 162.2 68.38 165.02 71.22 169.84C71.78 170.79 73.01 171.04 74.1 171.17C80.37 171.96 86.66 171.08 92.88 169.97" />
						<path id="Caminho 3195" class="shp11" d="M78.73 171.49C75.96 171.81 73.07 171.71 70.51 171.86C69.35 171.93 68.2 172 67.04 171.99C65.2 171.97 63.37 171.76 61.54 171.55C60.21 171.4 58.89 171.25 57.56 171.1C56.83 171.01 56.08 170.92 55.48 170.51C54.76 170.02 54.39 169.17 54.05 168.37C53.38 166.78 52.53 165.25 52.03 163.59C51.7 162.5 51.34 161.44 52.07 160.43C52.43 159.94 52.93 159.57 53.44 159.23C54.09 158.79 54.76 158.38 55.5 158.12C57.91 157.23 60.16 158.18 62.41 159.05C64.8 159.96 67.18 160.96 69.68 161.53C72.37 162.15 75.14 162.27 77.89 162.44C80.08 162.58 83.49 162.41 85.29 163.89C86.03 164.49 87.12 165.87 87.11 166.86C87.09 168.11 85.56 169.23 84.61 169.78C82.86 170.78 80.83 171.26 78.73 171.49Z" />
						<path id="Caminho 3196" class="shp11" d="M91.62 216.87C93.08 219.23 94.95 221.44 96.42 223.54C97.09 224.49 97.75 225.44 98.48 226.34C99.63 227.78 100.93 229.08 102.23 230.39C103.17 231.34 104.11 232.28 105.06 233.23C105.57 233.75 106.11 234.28 106.81 234.5C107.63 234.76 108.53 234.53 109.37 234.29C112.5 233.43 115.47 233.35 115.54 229.37C115.59 226.85 114.65 223.99 112.52 222.56C110.06 220.91 107.37 219.66 105.04 217.79C102.89 216.06 101.08 213.96 99.24 211.92C97.77 210.28 95.79 207.5 93.51 207C92.58 206.8 90.82 206.8 90.05 207.42C89.09 208.21 89.15 210.11 89.31 211.19C89.62 213.19 90.5 215.07 91.62 216.87Z" />
						<path id="Caminho 3197" class="shp17" d="M68.97 171.93C66.63 171.43 63.69 170.59 62.27 168.66C61.19 167.18 60.92 165.35 61.14 163.53C61.36 161.75 62.91 160.51 64.59 159.89C60.7 157.26 56.82 156.78 52.89 157.79C52.46 157.9 52.03 158.06 51.63 158.25C46.2 160.9 48.81 167.6 52.7 170.31C54.47 171.54 56.57 172.28 58.73 172.45C60.46 172.59 61.64 172.53 63.38 172.53C65.48 172.52 66.57 172.14 68.97 171.93Z" />
						<path id="Caminho 3198" class="shp17" d="M97.13 224.6C98.97 226.12 101.46 227.91 103.85 227.83C105.68 227.76 107.28 226.83 108.57 225.53C109.83 224.26 109.85 222.27 109.29 220.57C113.77 221.99 116.55 224.74 118.19 228.44C118.38 228.85 118.52 229.28 118.61 229.73C119.9 235.62 113.03 237.73 108.49 236.36C106.42 235.73 104.54 234.54 103.07 232.96C101.88 231.69 101.2 230.73 100.13 229.36C98.83 227.7 98.45 226.61 97.13 224.6Z" />
						<path id="Caminho 3199" class="shp11" d="M93.37 194.55C94.48 198.76 95.59 203.01 96.89 207.14C96.91 207.22 96.94 207.31 96.97 207.39C97.57 209.1 98.31 210.76 98.89 212.48C99.26 213.58 99.59 214.69 99.83 215.82C99.94 216.36 100.04 216.89 100.09 217.43C100.12 217.65 100.2 217.98 100.14 218.2C100.06 218.47 99.74 218.7 99.49 218.81C99.23 218.93 98.95 218.97 98.66 218.98C97.54 219.04 96.42 218.72 95.36 218.34C94.7 218.11 94.05 217.85 93.41 217.57C92.82 217.31 92.13 217.07 91.6 216.71C91.34 216.54 91.16 216.21 90.97 215.96C90.77 215.69 90.56 215.42 90.36 215.14C89.96 214.59 89.57 214.03 89.19 213.46C87.46 210.87 85.92 208.16 84.44 205.41C82.98 202.69 81.58 199.94 80.08 197.23C73.04 184.46 65.94 170.93 63.12 156.49C62.48 153.16 62.46 149.18 63.9 146.06C67.67 137.84 78.68 139.58 81.85 147.27C87.14 160.13 87.84 174.37 91.56 187.76C92.18 189.99 92.77 192.27 93.37 194.55Z" />
						<path id="Caminho 3200" class="shp7" d="M84.23 205.01C82.84 202.41 81.49 199.79 80.09 197.24C73.04 184.46 65.95 170.94 63.13 156.5C62.49 153.17 62.47 149.19 63.9 146.06C67.68 137.85 78.69 139.58 81.85 147.28C87.14 160.13 87.85 174.37 91.56 187.76C92.18 190 92.78 192.27 93.38 194.56C93.89 196.52 94.41 198.49 94.95 200.46" />
					</g>
				</g>
			</g>
		</g>
	</g>
</svg>