<svg xmlns="http://www.w3.org/2000/svg" viewBox="0 0 26 21" width="26" height="21">
	<defs>
		<clipPath clipPathUnits="userSpaceOnUse" id="cp1">
			<path d="M-1354 -5574L566 -5574L566 143L-1354 143Z" />
		</clipPath>
	</defs>
	<style>
		tspan { white-space:pre }
		.shp0 { fill: #808080 } 
	</style>
	<g id="Desktop-1" clip-path="url(#cp1)">
		<g id="Grupo 13113">
			<g id="Grupo 13108">
				<path id="logo-twitter" class="shp0" d="M25 3.37C24.06 3.78 23.07 4.05 22.05 4.17C23.12 3.54 23.92 2.55 24.31 1.37C23.3 1.96 22.2 2.38 21.05 2.6C20.08 1.58 18.72 1 17.31 1C14.47 1 12.18 3.26 12.18 6.05C12.18 6.43 12.22 6.82 12.31 7.2C8.2 7 4.36 5.09 1.74 1.92C1.28 2.69 1.04 3.57 1.04 4.46C1.04 6.21 1.95 7.75 3.33 8.66C2.52 8.64 1.72 8.43 1 8.03L1 8.09C1 10.54 2.77 12.58 5.12 13.04C4.67 13.16 4.22 13.22 3.76 13.22C3.44 13.22 3.12 13.19 2.8 13.12C3.45 15.13 5.35 16.59 7.59 16.63C5.77 18.04 3.53 18.8 1.22 18.79C0.81 18.79 0.41 18.77 0 18.72C2.34 20.22 5.07 21.01 7.85 21C17.3 21 22.46 13.31 22.46 6.64C22.46 6.42 22.45 6.2 22.44 5.98C23.44 5.27 24.31 4.39 25 3.37Z" />
			</g>
		</g>
	</g>
</svg>