<svg xmlns="http://www.w3.org/2000/svg" viewBox="0 0 60 60" width="60" height="60">
	<defs>
		<clipPath clipPathUnits="userSpaceOnUse" id="cp1">
			<path d="M-1227 -5364L693 -5364L693 353L-1227 353Z" />
		</clipPath>
	</defs>
	<style>
		tspan { white-space:pre }
		.shp0 { fill: #bcbcbc } 
	</style>
	<g id="Desktop-1" clip-path="url(#cp1)">
		<g id="Grupo 13273">
			<g id="Componente 6 – 1">
				<g id="Grupo 13106">
					<path id="logo-whatsapp" fill-rule="evenodd" class="shp0" d="M60 29.75C59.99 46.14 46.59 59.48 30.13 59.48L30.11 59.48C25.13 59.48 20.22 58.24 15.84 55.87L0 60L4.24 44.6C1.62 40.08 0.24 34.95 0.25 29.73C0.26 13.34 13.66 0 30.13 0C38.05 -0.02 45.66 3.11 51.26 8.72C56.87 14.28 60.02 21.85 60 29.75ZM54.96 29.75C54.93 16.07 43.82 5 30.14 5.02C16.44 5.02 5.29 16.11 5.29 29.73C5.29 34.39 6.61 38.95 9.09 42.88L9.68 43.82L7.17 52.94L16.57 50.48L17.48 51.02C21.31 53.28 25.67 54.46 30.12 54.46L30.13 54.46C43.81 54.46 54.95 43.38 54.96 29.75ZM45.18 36.82C45.36 37.13 45.36 38.62 44.74 40.36C44.12 42.09 41.14 43.68 39.7 43.89C38.42 44.08 36.79 44.16 35 43.59C33.56 43.15 32.13 42.62 30.74 42.03C23.26 38.81 18.36 31.31 17.99 30.81C17.62 30.32 14.94 26.78 14.94 23.13C14.94 19.47 16.87 17.67 17.56 16.93C18.06 16.36 18.78 16.02 19.55 16C20.04 16 20.54 16 20.98 16.03C21.44 16.05 22.05 15.85 22.66 17.3C23.28 18.79 24.77 22.45 24.96 22.82C25.15 23.19 25.27 23.62 25.02 24.12C24.77 24.61 24.65 24.92 24.28 25.36C23.9 25.79 23.49 26.33 23.16 26.66C22.78 27.03 22.39 27.43 22.83 28.18C23.26 28.92 24.76 31.35 26.98 33.32C29.83 35.85 32.24 36.64 32.99 37.01C33.73 37.38 34.17 37.33 34.6 36.82C35.04 36.32 36.47 34.66 36.97 33.91C37.46 33.17 37.96 33.29 38.64 33.54C39.33 33.79 43 35.58 43.74 35.96C44.49 36.33 44.99 36.51 45.18 36.82Z" />
				</g>
			</g>
		</g>
	</g>
</svg>