<svg xmlns="http://www.w3.org/2000/svg" viewBox="0 0 25 25" width="25" height="25">
	<defs>
		<clipPath clipPathUnits="userSpaceOnUse" id="cp1">
			<path d="M-1798 -809L122 -809L122 4908L-1798 4908Z" />
		</clipPath>
	</defs>
	<style>
		tspan { white-space:pre }
		.shp0 { fill: #00bf6f } 
	</style>
	<g id="Desktop-1" clip-path="url(#cp1)">
		<g id="Grupo 722">
			<path id="logo-whatsapp" fill-rule="evenodd" class="shp0" d="M25 12.4C25 19.23 19.41 24.78 12.55 24.78L12.55 24.78C10.47 24.78 8.43 24.27 6.6 23.28L0 25L1.77 18.58C0.67 16.7 0.1 14.56 0.1 12.39C0.11 5.56 5.69 0 12.55 0C15.85 -0.01 19.02 1.3 21.36 3.63C23.7 5.95 25.01 9.1 25 12.4ZM22.9 12.4C22.89 6.7 18.26 2.08 12.56 2.09C6.85 2.09 2.21 6.71 2.21 12.39C2.2 14.33 2.75 16.23 3.79 17.87L4.03 18.26L2.99 22.06L6.9 21.03L7.28 21.26C8.88 22.2 10.7 22.69 12.55 22.69L12.55 22.69C18.25 22.69 22.9 18.07 22.9 12.4ZM18.82 15.34C18.9 15.47 18.9 16.09 18.64 16.81C18.38 17.54 17.14 18.2 16.54 18.29C16.01 18.37 15.33 18.4 14.58 18.16C13.98 17.98 13.39 17.76 12.81 17.51C9.69 16.17 7.65 13.04 7.5 12.84C7.34 12.63 6.23 11.16 6.23 9.64C6.23 8.11 7.03 7.36 7.32 7.05C7.53 6.81 7.83 6.67 8.15 6.67C8.35 6.67 8.56 6.67 8.74 6.68C8.93 6.69 9.19 6.6 9.44 7.21C9.7 7.83 10.32 9.35 10.4 9.51C10.48 9.66 10.53 9.84 10.43 10.05C10.32 10.26 10.27 10.38 10.11 10.57C9.96 10.75 9.79 10.97 9.65 11.11C9.49 11.26 9.33 11.43 9.51 11.74C9.69 12.05 10.32 13.06 11.24 13.88C12.43 14.94 13.43 15.26 13.74 15.42C14.05 15.58 14.24 15.55 14.42 15.34C14.6 15.13 15.2 14.44 15.4 14.13C15.61 13.82 15.82 13.87 16.1 13.97C16.39 14.08 17.92 14.83 18.23 14.98C18.54 15.14 18.75 15.21 18.82 15.34Z" />
		</g>
	</g>
</svg>