<svg xmlns="http://www.w3.org/2000/svg" viewBox="0 0 22 16" width="22" height="16">
	<defs>
		<clipPath clipPathUnits="userSpaceOnUse" id="cp1">
			<path d="M-1524 -5579L396 -5579L396 138L-1524 138Z" />
		</clipPath>
	</defs>
	<style>
		tspan { white-space:pre }
		.shp0 { fill: #808080 } 
	</style>
	<g id="Desktop-1" clip-path="url(#cp1)">
		<g id="Grupo 13113">
			<g id="Grupo 13108">
				<path id="logo-youtube" fill-rule="evenodd" class="shp0" d="M21.33 7.99C21.33 9.47 21.29 10.96 21.19 12.45C21.19 14.32 19.81 15.84 18.1 15.84C15.68 15.95 13.2 16.01 10.66 16C8.13 16 5.65 15.95 3.22 15.84C1.52 15.84 0.14 14.32 0.14 12.45C0.04 10.96 0 9.47 0 7.99C0 6.51 0.04 5.02 0.15 3.54C0.15 1.67 1.53 0.15 3.23 0.15C5.53 0.04 7.89 0 10.29 0L11.04 0C13.45 0 15.8 0.04 18.11 0.15C19.81 0.15 21.19 1.66 21.19 3.53C21.29 5.02 21.34 6.5 21.33 7.99ZM14.67 7.98L8.62 3.89L8.62 12.08L14.67 7.98Z" />
			</g>
		</g>
	</g>
</svg>